<svg xmlns="http://www.w3.org/2000/svg" viewBox="0 0 145.08 141.51"><g id="Capa_2" data-name="Capa 2"><g id="Layer_1" data-name="Layer 1"><path d="M141.26,141.22a.1.1,0,0,0-.1.1.09.09,0,0,0,.1.1.1.1,0,0,0,.1-.1A.11.11,0,0,0,141.26,141.22Z"/><path d="M136.76,141.22a.1.1,0,0,0-.1.1.09.09,0,0,0,.1.1.1.1,0,0,0,.1-.1A.11.11,0,0,0,136.76,141.22Z"/><path d="M132.26,141.22a.1.1,0,0,0-.1.1.09.09,0,0,0,.1.1.1.1,0,0,0,.1-.1A.11.11,0,0,0,132.26,141.22Z"/><path d="M127.76,141.22a.1.1,0,0,0-.1.1.09.09,0,0,0,.1.1.1.1,0,0,0,.1-.1A.11.11,0,0,0,127.76,141.22Z"/><path d="M123.26,141.21a.11.11,0,1,0,.11.11A.11.11,0,0,0,123.26,141.21Z"/><path d="M118.76,141.21a.11.11,0,1,0,.11.11A.11.11,0,0,0,118.76,141.21Z"/><path d="M114.26,141.21a.11.11,0,1,0,.11.11A.11.11,0,0,0,114.26,141.21Z"/><path d="M109.76,141.2a.12.12,0,0,0-.13.12.13.13,0,0,0,.13.13.12.12,0,0,0,.12-.13A.12.12,0,0,0,109.76,141.2Z"/><path d="M105.26,141.2a.12.12,0,0,0-.13.12.13.13,0,0,0,.13.13.12.12,0,0,0,.12-.13A.12.12,0,0,0,105.26,141.2Z"/><path d="M100.76,141.2a.12.12,0,0,0-.13.12.13.13,0,0,0,.13.13.12.12,0,0,0,.12-.13A.12.12,0,0,0,100.76,141.2Z"/><path d="M96.26,141.2a.12.12,0,0,0-.13.12.13.13,0,0,0,.13.13.12.12,0,0,0,.12-.13A.12.12,0,0,0,96.26,141.2Z"/><path d="M91.76,141.2a.12.12,0,0,0-.13.12.13.13,0,0,0,.13.13.12.12,0,0,0,.12-.13A.12.12,0,0,0,91.76,141.2Z"/><path d="M87.26,141.18a.14.14,0,0,0-.14.14.14.14,0,0,0,.14.14.14.14,0,0,0,.14-.14A.15.15,0,0,0,87.26,141.18Z"/><path d="M82.76,141.18a.14.14,0,0,0-.14.14.14.14,0,0,0,.14.14.14.14,0,0,0,.14-.14A.15.15,0,0,0,82.76,141.18Z"/><path d="M78.26,141.18a.14.14,0,0,0-.14.14.14.14,0,0,0,.14.14.14.14,0,0,0,.14-.14A.15.15,0,0,0,78.26,141.18Z"/><path d="M73.76,141.18a.14.14,0,0,0-.14.14.14.14,0,0,0,.14.14.14.14,0,0,0,.14-.14A.15.15,0,0,0,73.76,141.18Z"/><path d="M69.26,141.17a.15.15,0,1,0,.15.15A.15.15,0,0,0,69.26,141.17Z"/><path d="M64.76,141.17a.15.15,0,1,0,.15.15A.15.15,0,0,0,64.76,141.17Z"/><path d="M60.26,141.17a.15.15,0,1,0,.15.15A.15.15,0,0,0,60.26,141.17Z"/><path d="M55.76,141.16a.16.16,0,1,0,.16.16A.16.16,0,0,0,55.76,141.16Z"/><path d="M51.26,141.16a.16.16,0,1,0,.16.16A.16.16,0,0,0,51.26,141.16Z"/><path d="M46.76,141.16a.16.16,0,1,0,.16.16A.16.16,0,0,0,46.76,141.16Z"/><path d="M42.26,141.16a.16.16,0,1,0,.16.16A.16.16,0,0,0,42.26,141.16Z"/><path d="M37.76,141.15a.18.18,0,0,0-.18.17.18.18,0,0,0,.18.18.17.17,0,0,0,.17-.18A.17.17,0,0,0,37.76,141.15Z"/><path d="M33.26,141.15a.18.18,0,0,0-.18.17.18.18,0,0,0,.18.18.17.17,0,0,0,.17-.18A.17.17,0,0,0,33.26,141.15Z"/><path d="M28.76,141.15a.18.18,0,0,0-.18.17.18.18,0,0,0,.18.18.17.17,0,0,0,.17-.18A.17.17,0,0,0,28.76,141.15Z"/><path d="M24.26,141.15a.18.18,0,0,0-.18.17.18.18,0,0,0,.18.18.17.17,0,0,0,.17-.18A.17.17,0,0,0,24.26,141.15Z"/><path d="M19.76,141.15a.18.18,0,0,0-.18.17.18.18,0,0,0,.18.18.17.17,0,0,0,.17-.18A.17.17,0,0,0,19.76,141.15Z"/><path d="M15.26,141.13a.2.2,0,0,0-.19.19.19.19,0,1,0,.38,0A.2.2,0,0,0,15.26,141.13Z"/><path d="M10.76,141.13a.2.2,0,0,0-.19.19.19.19,0,0,0,.38,0A.2.2,0,0,0,10.76,141.13Z"/><path d="M6.26,141.13a.2.2,0,0,0-.19.19.19.19,0,0,0,.38,0A.2.2,0,0,0,6.26,141.13Z"/><path d="M1.76,141.13a.2.2,0,0,0-.19.19.19.19,0,0,0,.38,0A.2.2,0,0,0,1.76,141.13Z"/><path d="M143.51,136.72a.1.1,0,0,0-.1.1.09.09,0,0,0,.1.1.1.1,0,0,0,.1-.1A.11.11,0,0,0,143.51,136.72Z"/><path d="M139,136.72a.1.1,0,0,0-.1.1.09.09,0,0,0,.1.1.1.1,0,0,0,.1-.1A.11.11,0,0,0,139,136.72Z"/><path d="M134.51,136.72a.1.1,0,0,0-.1.1.09.09,0,0,0,.1.1.1.1,0,0,0,.1-.1A.11.11,0,0,0,134.51,136.72Z"/><path d="M130,136.72a.1.1,0,0,0-.1.1.09.09,0,0,0,.1.1.1.1,0,0,0,.1-.1A.11.11,0,0,0,130,136.72Z"/><path d="M125.51,136.72a.1.1,0,0,0-.1.1.09.09,0,0,0,.1.1.1.1,0,0,0,.1-.1A.11.11,0,0,0,125.51,136.72Z"/><path d="M121,136.71a.11.11,0,1,0,.11.11A.11.11,0,0,0,121,136.71Z"/><path d="M116.51,136.71a.11.11,0,1,0,.11.11A.11.11,0,0,0,116.51,136.71Z"/><path d="M112,136.71a.11.11,0,1,0,.11.11A.11.11,0,0,0,112,136.71Z"/><path d="M107.51,136.7a.12.12,0,0,0-.13.12.13.13,0,0,0,.13.13.12.12,0,0,0,.12-.13A.12.12,0,0,0,107.51,136.7Z"/><path d="M103,136.7a.12.12,0,0,0-.13.12.13.13,0,0,0,.13.13.12.12,0,0,0,.12-.13A.12.12,0,0,0,103,136.7Z"/><path d="M98.51,136.7a.12.12,0,0,0-.13.12.13.13,0,0,0,.13.13.12.12,0,0,0,.12-.13A.12.12,0,0,0,98.51,136.7Z"/><path d="M94,136.7a.12.12,0,0,0-.13.12A.13.13,0,0,0,94,137a.12.12,0,0,0,.12-.13A.12.12,0,0,0,94,136.7Z"/><path d="M89.51,136.7a.12.12,0,0,0-.13.12.13.13,0,0,0,.13.13.12.12,0,0,0,.12-.13A.12.12,0,0,0,89.51,136.7Z"/><path d="M85,136.68a.14.14,0,0,0-.14.14A.14.14,0,0,0,85,137a.14.14,0,0,0,.14-.14A.15.15,0,0,0,85,136.68Z"/><path d="M80.51,136.68a.14.14,0,0,0-.14.14.14.14,0,0,0,.14.14.14.14,0,0,0,.14-.14A.15.15,0,0,0,80.51,136.68Z"/><path d="M76,136.68a.14.14,0,0,0-.14.14A.14.14,0,0,0,76,137a.14.14,0,0,0,.14-.14A.15.15,0,0,0,76,136.68Z"/><path d="M71.51,136.68a.14.14,0,0,0-.14.14.14.14,0,0,0,.14.14.14.14,0,0,0,.14-.14A.15.15,0,0,0,71.51,136.68Z"/><path d="M67,136.67a.15.15,0,1,0,.15.15A.15.15,0,0,0,67,136.67Z"/><path d="M62.51,136.67a.15.15,0,1,0,.15.15A.15.15,0,0,0,62.51,136.67Z"/><path d="M58,136.67a.15.15,0,1,0,.15.15A.15.15,0,0,0,58,136.67Z"/><path d="M53.51,136.66a.16.16,0,1,0,.16.16A.16.16,0,0,0,53.51,136.66Z"/><path d="M49,136.66a.16.16,0,1,0,.16.16A.16.16,0,0,0,49,136.66Z"/><path d="M44.51,136.66a.16.16,0,1,0,.16.16A.16.16,0,0,0,44.51,136.66Z"/><path d="M40,136.66a.16.16,0,1,0,.16.16A.16.16,0,0,0,40,136.66Z"/><path d="M35.51,136.65a.18.18,0,0,0-.18.17.18.18,0,0,0,.18.18.17.17,0,0,0,.17-.18A.17.17,0,0,0,35.51,136.65Z"/><path d="M31,136.65a.18.18,0,0,0-.18.17A.18.18,0,0,0,31,137a.17.17,0,0,0,.17-.18A.17.17,0,0,0,31,136.65Z"/><path d="M26.51,136.65a.18.18,0,0,0-.18.17.18.18,0,0,0,.18.18.17.17,0,0,0,.17-.18A.17.17,0,0,0,26.51,136.65Z"/><path d="M22,136.65a.18.18,0,0,0-.18.17A.18.18,0,0,0,22,137a.17.17,0,0,0,.17-.18A.17.17,0,0,0,22,136.65Z"/><path d="M17.51,136.65a.18.18,0,0,0-.18.17.18.18,0,0,0,.18.18.17.17,0,0,0,.17-.18A.17.17,0,0,0,17.51,136.65Z"/><path d="M13,136.63a.2.2,0,0,0-.19.19.19.19,0,1,0,.38,0A.2.2,0,0,0,13,136.63Z"/><path d="M8.51,136.63a.2.2,0,0,0-.19.19.19.19,0,0,0,.38,0A.2.2,0,0,0,8.51,136.63Z"/><path d="M4,136.63a.2.2,0,0,0-.19.19.19.19,0,0,0,.38,0A.2.2,0,0,0,4,136.63Z"/><path d="M141.26,132.2a.12.12,0,0,0-.13.12.13.13,0,0,0,.13.13.12.12,0,0,0,.12-.13A.12.12,0,0,0,141.26,132.2Z"/><path d="M136.76,132.2a.12.12,0,0,0-.13.12.13.13,0,0,0,.13.13.12.12,0,0,0,.12-.13A.12.12,0,0,0,136.76,132.2Z"/><path d="M132.26,132.2a.12.12,0,0,0-.13.12.13.13,0,0,0,.13.13.12.12,0,0,0,.12-.13A.12.12,0,0,0,132.26,132.2Z"/><path d="M127.76,132.2a.12.12,0,0,0-.13.12.13.13,0,0,0,.13.13.12.12,0,0,0,.12-.13A.12.12,0,0,0,127.76,132.2Z"/><path d="M123.26,132.18a.14.14,0,0,0-.14.14.14.14,0,0,0,.14.14.14.14,0,0,0,.14-.14A.15.15,0,0,0,123.26,132.18Z"/><path d="M118.76,132.18a.14.14,0,0,0-.14.14.14.14,0,0,0,.14.14.14.14,0,0,0,.14-.14A.15.15,0,0,0,118.76,132.18Z"/><path d="M114.26,132.18a.14.14,0,0,0-.14.14.14.14,0,0,0,.14.14.14.14,0,0,0,.14-.14A.15.15,0,0,0,114.26,132.18Z"/><path d="M109.76,132.17a.15.15,0,1,0,.15.15A.15.15,0,0,0,109.76,132.17Z"/><path d="M105.26,132.17a.15.15,0,1,0,.15.15A.15.15,0,0,0,105.26,132.17Z"/><path d="M100.76,132.17a.15.15,0,1,0,.15.15A.15.15,0,0,0,100.76,132.17Z"/><path d="M96.26,132.17a.15.15,0,1,0,.15.15A.15.15,0,0,0,96.26,132.17Z"/><path d="M91.76,132.16a.16.16,0,1,0,.16.16A.16.16,0,0,0,91.76,132.16Z"/><path d="M87.26,132.16a.16.16,0,1,0,.16.16A.16.16,0,0,0,87.26,132.16Z"/><path d="M82.76,132.16a.16.16,0,1,0,.16.16A.16.16,0,0,0,82.76,132.16Z"/><path d="M78.26,132.15a.18.18,0,0,0-.18.17.18.18,0,0,0,.18.18.17.17,0,0,0,.17-.18A.17.17,0,0,0,78.26,132.15Z"/><path d="M73.76,132.15a.18.18,0,0,0-.18.17.18.18,0,0,0,.18.18.17.17,0,0,0,.17-.18A.17.17,0,0,0,73.76,132.15Z"/><path d="M69.26,132.15a.18.18,0,0,0-.18.17.18.18,0,0,0,.18.18.17.17,0,0,0,.17-.18A.17.17,0,0,0,69.26,132.15Z"/><path d="M64.76,132.15a.18.18,0,0,0-.18.17.18.18,0,0,0,.18.18.17.17,0,0,0,.17-.18A.17.17,0,0,0,64.76,132.15Z"/><path d="M60.26,132.15a.18.18,0,0,0-.18.17.18.18,0,0,0,.18.18.17.17,0,0,0,.17-.18A.17.17,0,0,0,60.26,132.15Z"/><path d="M55.76,132.15a.18.18,0,0,0-.18.17.18.18,0,0,0,.18.18.17.17,0,0,0,.17-.18A.17.17,0,0,0,55.76,132.15Z"/><path d="M51.26,132.13a.2.2,0,0,0-.19.19.19.19,0,1,0,.38,0A.2.2,0,0,0,51.26,132.13Z"/><path d="M46.76,132.13a.2.2,0,0,0-.19.19.19.19,0,1,0,.38,0A.2.2,0,0,0,46.76,132.13Z"/><path d="M42.26,132.13a.2.2,0,0,0-.19.19.19.19,0,1,0,.38,0A.2.2,0,0,0,42.26,132.13Z"/><path d="M37.76,132.12a.2.2,0,1,0,.2.2A.2.2,0,0,0,37.76,132.12Z"/><path d="M33.26,132.12a.2.2,0,1,0,.2.2A.2.2,0,0,0,33.26,132.12Z"/><path d="M28.76,132.12a.2.2,0,1,0,.2.2A.2.2,0,0,0,28.76,132.12Z"/><path d="M24.26,132.11a.21.21,0,1,0,.21.21A.21.21,0,0,0,24.26,132.11Z"/><path d="M19.76,132.11a.21.21,0,1,0,.21.21A.21.21,0,0,0,19.76,132.11Z"/><path d="M15.26,132.11a.21.21,0,1,0,.21.21A.21.21,0,0,0,15.26,132.11Z"/><path d="M10.76,132.11a.21.21,0,1,0,.21.21A.21.21,0,0,0,10.76,132.11Z"/><path d="M6.26,132.1a.23.23,0,1,0,.22.22A.22.22,0,0,0,6.26,132.1Z"/><path d="M1.76,132.1a.23.23,0,1,0,.22.22A.22.22,0,0,0,1.76,132.1Z"/><path d="M143.51,127.67a.15.15,0,1,0,.15.15A.15.15,0,0,0,143.51,127.67Z"/><path d="M139,127.67a.15.15,0,1,0,.15.15A.15.15,0,0,0,139,127.67Z"/><path d="M134.51,127.67a.15.15,0,1,0,.15.15A.15.15,0,0,0,134.51,127.67Z"/><path d="M130,127.66a.16.16,0,1,0,.16.16A.16.16,0,0,0,130,127.66Z"/><path d="M125.51,127.66a.16.16,0,1,0,.16.16A.16.16,0,0,0,125.51,127.66Z"/><path d="M121,127.66a.16.16,0,1,0,.16.16A.16.16,0,0,0,121,127.66Z"/><path d="M116.51,127.66a.16.16,0,1,0,.16.16A.16.16,0,0,0,116.51,127.66Z"/><path d="M112,127.65a.18.18,0,0,0-.18.17.18.18,0,0,0,.18.18.17.17,0,0,0,.17-.18A.17.17,0,0,0,112,127.65Z"/><path d="M107.51,127.65a.18.18,0,0,0-.18.17.18.18,0,0,0,.18.18.17.17,0,0,0,.17-.18A.17.17,0,0,0,107.51,127.65Z"/><path d="M103,127.65a.18.18,0,0,0-.18.17.18.18,0,0,0,.18.18.17.17,0,0,0,.17-.18A.17.17,0,0,0,103,127.65Z"/><path d="M98.51,127.65a.18.18,0,0,0-.18.17.18.18,0,0,0,.18.18.17.17,0,0,0,.17-.18A.17.17,0,0,0,98.51,127.65Z"/><path d="M94,127.65a.18.18,0,0,0-.18.17A.18.18,0,0,0,94,128a.17.17,0,0,0,.17-.18A.17.17,0,0,0,94,127.65Z"/><path d="M89.51,127.63a.2.2,0,0,0-.19.19.19.19,0,0,0,.38,0A.2.2,0,0,0,89.51,127.63Z"/><path d="M85,127.63a.2.2,0,0,0-.19.19.19.19,0,0,0,.38,0A.2.2,0,0,0,85,127.63Z"/><path d="M80.51,127.63a.2.2,0,0,0-.19.19.19.19,0,0,0,.38,0A.2.2,0,0,0,80.51,127.63Z"/><path d="M76,127.62a.2.2,0,1,0,.2.2A.2.2,0,0,0,76,127.62Z"/><path d="M71.51,127.62a.2.2,0,1,0,.2.2A.2.2,0,0,0,71.51,127.62Z"/><path d="M67,127.62a.2.2,0,1,0,.2.2A.2.2,0,0,0,67,127.62Z"/><path d="M62.51,127.62a.2.2,0,1,0,.2.2A.2.2,0,0,0,62.51,127.62Z"/><path d="M58,127.61a.21.21,0,1,0,.21.21A.21.21,0,0,0,58,127.61Z"/><path d="M53.51,127.61a.21.21,0,1,0,.21.21A.21.21,0,0,0,53.51,127.61Z"/><path d="M49,127.61a.21.21,0,1,0,.21.21A.21.21,0,0,0,49,127.61Z"/><path d="M44.51,127.6a.23.23,0,1,0,.22.22A.22.22,0,0,0,44.51,127.6Z"/><path d="M40,127.6a.23.23,0,1,0,.22.22A.22.22,0,0,0,40,127.6Z"/><path d="M35.51,127.6a.23.23,0,1,0,.22.22A.22.22,0,0,0,35.51,127.6Z"/><path d="M31,127.6a.23.23,0,1,0,.22.22A.22.22,0,0,0,31,127.6Z"/><path d="M26.51,127.58a.24.24,0,1,0,.24.24A.24.24,0,0,0,26.51,127.58Z"/><path d="M22,127.58a.24.24,0,1,0,.24.24A.24.24,0,0,0,22,127.58Z"/><path d="M17.51,127.57a.25.25,0,1,0,.25.25A.25.25,0,0,0,17.51,127.57Z"/><path d="M13,127.57a.25.25,0,1,0,.25.25A.25.25,0,0,0,13,127.57Z"/><path d="M8.51,127.57a.25.25,0,1,0,.25.25A.25.25,0,0,0,8.51,127.57Z"/><path d="M4,127.56a.26.26,0,0,0-.26.26.25.25,0,0,0,.26.26.26.26,0,0,0,.26-.26A.26.26,0,0,0,4,127.56Z"/><path d="M141.26,123.15a.18.18,0,0,0-.18.17.18.18,0,0,0,.18.18.17.17,0,0,0,.17-.18A.17.17,0,0,0,141.26,123.15Z"/><path d="M136.76,123.15a.18.18,0,0,0-.18.17.18.18,0,0,0,.18.18.17.17,0,0,0,.17-.18A.17.17,0,0,0,136.76,123.15Z"/><path d="M132.26,123.13a.2.2,0,0,0-.19.19.19.19,0,1,0,.38,0A.2.2,0,0,0,132.26,123.13Z"/><path d="M127.76,123.13a.2.2,0,0,0-.19.19.19.19,0,1,0,.38,0A.2.2,0,0,0,127.76,123.13Z"/><path d="M123.26,123.13a.2.2,0,0,0-.19.19.19.19,0,1,0,.38,0A.2.2,0,0,0,123.26,123.13Z"/><path d="M118.76,123.13a.2.2,0,0,0-.19.19.19.19,0,1,0,.38,0A.2.2,0,0,0,118.76,123.13Z"/><path d="M114.26,123.12a.2.2,0,1,0,.2.2A.2.2,0,0,0,114.26,123.12Z"/><path d="M109.76,123.12a.2.2,0,1,0,.2.2A.2.2,0,0,0,109.76,123.12Z"/><path d="M105.26,123.12a.2.2,0,1,0,.2.2A.2.2,0,0,0,105.26,123.12Z"/><path d="M100.76,123.11a.21.21,0,1,0,.21.21A.21.21,0,0,0,100.76,123.11Z"/><path d="M96.26,123.11a.21.21,0,1,0,.21.21A.21.21,0,0,0,96.26,123.11Z"/><path d="M91.76,123.11a.21.21,0,1,0,.21.21A.21.21,0,0,0,91.76,123.11Z"/><path d="M87.26,123.11a.21.21,0,1,0,.21.21A.21.21,0,0,0,87.26,123.11Z"/><path d="M82.76,123.1a.23.23,0,1,0,.22.22A.22.22,0,0,0,82.76,123.1Z"/><path d="M78.26,123.1a.23.23,0,1,0,.22.22A.22.22,0,0,0,78.26,123.1Z"/><path d="M73.76,123.1a.23.23,0,1,0,.22.22A.22.22,0,0,0,73.76,123.1Z"/><path d="M69.26,123.08a.24.24,0,1,0,.24.24A.24.24,0,0,0,69.26,123.08Z"/><path d="M64.76,123.08a.24.24,0,1,0,.24.24A.24.24,0,0,0,64.76,123.08Z"/><path d="M60.26,123.07a.25.25,0,1,0,.25.25A.25.25,0,0,0,60.26,123.07Z"/><path d="M55.76,123.07a.25.25,0,1,0,.25.25A.25.25,0,0,0,55.76,123.07Z"/><path d="M51.26,123.07a.25.25,0,1,0,.25.25A.25.25,0,0,0,51.26,123.07Z"/><path d="M46.76,123.06a.26.26,0,0,0-.26.26.25.25,0,0,0,.26.26.26.26,0,0,0,.26-.26A.26.26,0,0,0,46.76,123.06Z"/><path d="M42.26,123.06a.26.26,0,0,0-.26.26.25.25,0,0,0,.26.26.26.26,0,0,0,.26-.26A.26.26,0,0,0,42.26,123.06Z"/><path d="M37.76,123.06a.26.26,0,0,0-.26.26.25.25,0,0,0,.26.26.26.26,0,0,0,.26-.26A.26.26,0,0,0,37.76,123.06Z"/><path d="M33.26,123.06a.26.26,0,0,0-.26.26.25.25,0,0,0,.26.26.26.26,0,0,0,.26-.26A.26.26,0,0,0,33.26,123.06Z"/><path d="M28.76,123.05a.28.28,0,0,0-.28.27.29.29,0,0,0,.28.28.28.28,0,0,0,.27-.28A.27.27,0,0,0,28.76,123.05Z"/><path d="M24.26,123.05a.28.28,0,0,0-.28.27.29.29,0,0,0,.28.28.28.28,0,0,0,.27-.28A.27.27,0,0,0,24.26,123.05Z"/><path d="M19.76,123.05a.28.28,0,0,0-.28.27.29.29,0,0,0,.28.28.28.28,0,0,0,.27-.28A.27.27,0,0,0,19.76,123.05Z"/><path d="M15.26,123a.29.29,0,1,0,.29.29A.29.29,0,0,0,15.26,123Z"/><path d="M10.76,123a.29.29,0,1,0,.29.29A.29.29,0,0,0,10.76,123Z"/><path d="M6.26,123a.29.29,0,1,0,.29.29A.29.29,0,0,0,6.26,123Z"/><path d="M1.76,123a.29.29,0,1,0,.29.29A.29.29,0,0,0,1.76,123Z"/><path d="M143.51,118.62a.2.2,0,1,0,.2.2A.2.2,0,0,0,143.51,118.62Z"/><path d="M139,118.62a.2.2,0,1,0,.2.2A.2.2,0,0,0,139,118.62Z"/><path d="M134.51,118.61a.21.21,0,1,0,.21.21A.21.21,0,0,0,134.51,118.61Z"/><path d="M130,118.61a.21.21,0,1,0,.21.21A.21.21,0,0,0,130,118.61Z"/><path d="M125.51,118.61a.21.21,0,1,0,.21.21A.21.21,0,0,0,125.51,118.61Z"/><path d="M121,118.6a.23.23,0,1,0,.22.22A.22.22,0,0,0,121,118.6Z"/><path d="M116.51,118.6a.23.23,0,1,0,.22.22A.22.22,0,0,0,116.51,118.6Z"/><path d="M112,118.6a.23.23,0,1,0,.22.22A.22.22,0,0,0,112,118.6Z"/><path d="M107.51,118.6a.23.23,0,1,0,.22.22A.22.22,0,0,0,107.51,118.6Z"/><path d="M103,118.58a.24.24,0,1,0,.24.24A.24.24,0,0,0,103,118.58Z"/><path d="M98.51,118.57a.25.25,0,1,0,.25.25A.25.25,0,0,0,98.51,118.57Z"/><path d="M94,118.57a.25.25,0,1,0,.25.25A.25.25,0,0,0,94,118.57Z"/><path d="M89.51,118.57a.25.25,0,1,0,.25.25A.25.25,0,0,0,89.51,118.57Z"/><path d="M85,118.57a.25.25,0,1,0,.25.25A.25.25,0,0,0,85,118.57Z"/><path d="M80.51,118.56a.26.26,0,0,0-.26.26.25.25,0,0,0,.26.26.26.26,0,0,0,.26-.26A.26.26,0,0,0,80.51,118.56Z"/><path d="M76,118.56a.26.26,0,0,0-.26.26.25.25,0,0,0,.26.26.26.26,0,0,0,.26-.26A.26.26,0,0,0,76,118.56Z"/><path d="M71.51,118.56a.26.26,0,0,0-.26.26.25.25,0,0,0,.26.26.26.26,0,0,0,.26-.26A.26.26,0,0,0,71.51,118.56Z"/><path d="M67,118.55a.28.28,0,0,0-.28.27.29.29,0,0,0,.28.28.28.28,0,0,0,.27-.28A.27.27,0,0,0,67,118.55Z"/><path d="M62.51,118.55a.28.28,0,0,0-.28.27.29.29,0,0,0,.28.28.28.28,0,0,0,.27-.28A.27.27,0,0,0,62.51,118.55Z"/><path d="M58,118.55a.28.28,0,0,0-.28.27.29.29,0,0,0,.28.28.28.28,0,0,0,.27-.28A.27.27,0,0,0,58,118.55Z"/><path d="M53.51,118.55a.28.28,0,0,0-.28.27.29.29,0,0,0,.28.28.28.28,0,0,0,.27-.28A.27.27,0,0,0,53.51,118.55Z"/><path d="M49,118.53a.29.29,0,1,0,.29.29A.29.29,0,0,0,49,118.53Z"/><path d="M44.51,118.53a.29.29,0,1,0,.29.29A.29.29,0,0,0,44.51,118.53Z"/><path d="M40,118.53a.29.29,0,1,0,.29.29A.29.29,0,0,0,40,118.53Z"/><path d="M35.51,118.52a.3.3,0,0,0-.3.3.29.29,0,0,0,.3.3.3.3,0,0,0,.3-.3A.31.31,0,0,0,35.51,118.52Z"/><path d="M31,118.52a.3.3,0,0,0-.3.3.29.29,0,0,0,.3.3.3.3,0,0,0,.3-.3A.31.31,0,0,0,31,118.52Z"/><path d="M26.51,118.51a.31.31,0,1,0,.31.31A.31.31,0,0,0,26.51,118.51Z"/><path d="M22,118.51a.31.31,0,1,0,.31.31A.31.31,0,0,0,22,118.51Z"/><path d="M17.51,118.51a.31.31,0,1,0,.31.31A.31.31,0,0,0,17.51,118.51Z"/><path d="M13,118.5a.32.32,0,0,0-.33.32.33.33,0,0,0,.33.33.32.32,0,0,0,.32-.33A.32.32,0,0,0,13,118.5Z"/><path d="M8.51,118.5a.32.32,0,0,0-.33.32.33.33,0,0,0,.33.33.32.32,0,0,0,.32-.33A.32.32,0,0,0,8.51,118.5Z"/><path d="M4,118.5a.32.32,0,0,0-.33.32.33.33,0,0,0,.33.33.32.32,0,0,0,.32-.33A.32.32,0,0,0,4,118.5Z"/><path d="M141.26,114.08a.24.24,0,1,0,.24.24A.24.24,0,0,0,141.26,114.08Z"/><path d="M136.76,114.07a.25.25,0,1,0,.25.25A.25.25,0,0,0,136.76,114.07Z"/><path d="M132.26,114.07a.25.25,0,1,0,.25.25A.25.25,0,0,0,132.26,114.07Z"/><path d="M127.76,114.07a.25.25,0,1,0,.25.25A.25.25,0,0,0,127.76,114.07Z"/><path d="M123.26,114.06a.26.26,0,0,0-.26.26.25.25,0,0,0,.26.26.26.26,0,0,0,.26-.26A.26.26,0,0,0,123.26,114.06Z"/><path d="M118.76,114.06a.26.26,0,0,0-.26.26.25.25,0,0,0,.26.26.26.26,0,0,0,.26-.26A.26.26,0,0,0,118.76,114.06Z"/><path d="M114.26,114.06a.26.26,0,0,0-.26.26.25.25,0,0,0,.26.26.26.26,0,0,0,.26-.26A.26.26,0,0,0,114.26,114.06Z"/><path d="M109.76,114.06a.26.26,0,0,0-.26.26.25.25,0,0,0,.26.26.26.26,0,0,0,.26-.26A.26.26,0,0,0,109.76,114.06Z"/><path d="M105.26,114.05a.28.28,0,0,0-.28.27.29.29,0,0,0,.28.28.28.28,0,0,0,.27-.28A.27.27,0,0,0,105.26,114.05Z"/><path d="M100.76,114.05a.28.28,0,0,0-.28.27.29.29,0,0,0,.28.28.28.28,0,0,0,.27-.28A.27.27,0,0,0,100.76,114.05Z"/><path d="M96.26,114.05a.28.28,0,0,0-.28.27.29.29,0,0,0,.28.28.28.28,0,0,0,.27-.28A.27.27,0,0,0,96.26,114.05Z"/><path d="M91.76,114a.29.29,0,1,0,.29.29A.29.29,0,0,0,91.76,114Z"/><path d="M87.26,114a.29.29,0,1,0,.29.29A.29.29,0,0,0,87.26,114Z"/><path d="M82.76,114a.29.29,0,1,0,.29.29A.29.29,0,0,0,82.76,114Z"/><path d="M78.26,114a.29.29,0,1,0,.29.29A.29.29,0,0,0,78.26,114Z"/><path d="M73.76,114a.3.3,0,0,0-.3.3.29.29,0,0,0,.3.3.3.3,0,0,0,.3-.3A.31.31,0,0,0,73.76,114Z"/><path d="M69.26,114a.31.31,0,1,0,.31.31A.31.31,0,0,0,69.26,114Z"/><path d="M64.76,114a.31.31,0,1,0,.31.31A.31.31,0,0,0,64.76,114Z"/><path d="M60.26,114a.31.31,0,1,0,.31.31A.31.31,0,0,0,60.26,114Z"/><path d="M55.76,114a.31.31,0,1,0,.31.31A.31.31,0,0,0,55.76,114Z"/><path d="M51.26,114a.32.32,0,0,0-.33.32.33.33,0,0,0,.33.33.32.32,0,0,0,.32-.33A.32.32,0,0,0,51.26,114Z"/><path d="M46.76,114a.32.32,0,0,0-.33.32.33.33,0,0,0,.33.33.32.32,0,0,0,.32-.33A.32.32,0,0,0,46.76,114Z"/><path d="M42.26,114a.32.32,0,0,0-.33.32.33.33,0,0,0,.33.33.32.32,0,0,0,.32-.33A.32.32,0,0,0,42.26,114Z"/><path d="M37.76,114a.34.34,0,0,0-.34.34.34.34,0,1,0,.68,0A.34.34,0,0,0,37.76,114Z"/><path d="M33.26,114a.34.34,0,0,0-.34.34.34.34,0,1,0,.68,0A.34.34,0,0,0,33.26,114Z"/><path d="M28.76,114a.35.35,0,1,0,.35.35A.35.35,0,0,0,28.76,114Z"/><path d="M24.26,114a.35.35,0,1,0,.35.35A.35.35,0,0,0,24.26,114Z"/><path d="M19.76,114a.35.35,0,1,0,.35.35A.35.35,0,0,0,19.76,114Z"/><path d="M15.26,114a.35.35,0,1,0,.35.35A.35.35,0,0,0,15.26,114Z"/><path d="M10.76,114a.36.36,0,1,0,.36.36A.36.36,0,0,0,10.76,114Z"/><path d="M6.26,114a.38.38,0,1,0,0,.75.38.38,0,0,0,0-.75Z"/><path d="M1.76,114a.38.38,0,1,0,0,.75.38.38,0,0,0,0-.75Z"/><path d="M143.51,109.55a.28.28,0,0,0-.28.27.29.29,0,0,0,.28.28.28.28,0,0,0,.27-.28A.27.27,0,0,0,143.51,109.55Z"/><path d="M139,109.55a.28.28,0,0,0-.28.27.29.29,0,0,0,.28.28.28.28,0,0,0,.27-.28A.27.27,0,0,0,139,109.55Z"/><path d="M134.51,109.55a.28.28,0,0,0-.28.27.29.29,0,0,0,.28.28.28.28,0,0,0,.27-.28A.27.27,0,0,0,134.51,109.55Z"/><path d="M130,109.55a.28.28,0,0,0-.28.27.29.29,0,0,0,.28.28.28.28,0,0,0,.27-.28A.27.27,0,0,0,130,109.55Z"/><path d="M125.51,109.53a.29.29,0,1,0,.29.29A.29.29,0,0,0,125.51,109.53Z"/><path d="M121,109.53a.29.29,0,1,0,.29.29A.29.29,0,0,0,121,109.53Z"/><path d="M116.51,109.53a.29.29,0,1,0,.29.29A.29.29,0,0,0,116.51,109.53Z"/><path d="M112,109.52a.3.3,0,0,0-.3.3.29.29,0,0,0,.3.3.3.3,0,0,0,.3-.3A.31.31,0,0,0,112,109.52Z"/><path d="M107.51,109.52a.3.3,0,0,0-.3.3.29.29,0,0,0,.3.3.3.3,0,0,0,.3-.3A.31.31,0,0,0,107.51,109.52Z"/><path d="M103,109.51a.31.31,0,1,0,.31.31A.31.31,0,0,0,103,109.51Z"/><path d="M98.51,109.51a.31.31,0,1,0,.31.31A.31.31,0,0,0,98.51,109.51Z"/><path d="M94,109.51a.31.31,0,1,0,.31.31A.31.31,0,0,0,94,109.51Z"/><path d="M89.51,109.5a.32.32,0,0,0-.33.32.33.33,0,0,0,.33.33.32.32,0,0,0,.32-.33A.32.32,0,0,0,89.51,109.5Z"/><path d="M85,109.5a.32.32,0,0,0-.33.32.33.33,0,0,0,.33.33.32.32,0,0,0,.32-.33A.32.32,0,0,0,85,109.5Z"/><path d="M80.51,109.5a.32.32,0,0,0-.33.32.33.33,0,0,0,.33.33.32.32,0,0,0,.32-.33A.32.32,0,0,0,80.51,109.5Z"/><path d="M76,109.5a.32.32,0,0,0-.33.32.33.33,0,0,0,.33.33.32.32,0,0,0,.32-.33A.32.32,0,0,0,76,109.5Z"/><path d="M71.51,109.48a.34.34,0,0,0-.34.34.34.34,0,0,0,.68,0A.34.34,0,0,0,71.51,109.48Z"/><path d="M67,109.47a.35.35,0,1,0,.35.35A.35.35,0,0,0,67,109.47Z"/><path d="M62.51,109.47a.35.35,0,1,0,.35.35A.35.35,0,0,0,62.51,109.47Z"/><path d="M58,109.47a.35.35,0,1,0,.35.35A.35.35,0,0,0,58,109.47Z"/><path d="M53.51,109.47a.35.35,0,1,0,.35.35A.35.35,0,0,0,53.51,109.47Z"/><path d="M49,109.46a.36.36,0,1,0,.36.36A.36.36,0,0,0,49,109.46Z"/><path d="M44.51,109.46a.36.36,0,1,0,.36.36A.36.36,0,0,0,44.51,109.46Z"/><path d="M40,109.45a.38.38,0,1,0,0,.75.38.38,0,0,0,0-.75Z"/><path d="M35.51,109.45a.38.38,0,1,0,0,.75.38.38,0,0,0,0-.75Z"/><path d="M31,109.45a.38.38,0,1,0,0,.75.38.38,0,0,0,0-.75Z"/><path d="M26.51,109.44a.39.39,0,1,0,.39.38A.39.39,0,0,0,26.51,109.44Z"/><path d="M22,109.44a.39.39,0,1,0,.39.38A.39.39,0,0,0,22,109.44Z"/><path d="M17.51,109.44a.39.39,0,1,0,.39.38A.39.39,0,0,0,17.51,109.44Z"/><path d="M13,109.44a.39.39,0,1,0,.39.38A.39.39,0,0,0,13,109.44Z"/><path d="M8.51,109.42a.4.4,0,1,0,.4.4A.4.4,0,0,0,8.51,109.42Z"/><path d="M4,109.41a.41.41,0,1,0,.41.41A.41.41,0,0,0,4,109.41Z"/><path d="M141.26,105a.31.31,0,1,0,.31.31A.31.31,0,0,0,141.26,105Z"/><path d="M136.76,105a.31.31,0,1,0,.31.31A.31.31,0,0,0,136.76,105Z"/><path d="M132.26,105a.31.31,0,1,0,.31.31A.31.31,0,0,0,132.26,105Z"/><path d="M127.76,105a.32.32,0,0,0-.33.32.33.33,0,0,0,.33.33.32.32,0,0,0,.32-.33A.32.32,0,0,0,127.76,105Z"/><path d="M123.26,105a.32.32,0,0,0-.33.32.33.33,0,0,0,.33.33.32.32,0,0,0,.32-.33A.32.32,0,0,0,123.26,105Z"/><path d="M118.76,105a.32.32,0,0,0-.33.32.33.33,0,0,0,.33.33.32.32,0,0,0,.32-.33A.32.32,0,0,0,118.76,105Z"/><path d="M114.26,105a.34.34,0,0,0-.34.34.34.34,0,0,0,.68,0A.34.34,0,0,0,114.26,105Z"/><path d="M109.76,105a.34.34,0,0,0-.34.34.34.34,0,0,0,.68,0A.34.34,0,0,0,109.76,105Z"/><path d="M105.26,105a.35.35,0,1,0,.35.35A.35.35,0,0,0,105.26,105Z"/><path d="M100.76,105a.35.35,0,1,0,.35.35A.35.35,0,0,0,100.76,105Z"/><path d="M96.26,105a.35.35,0,1,0,.35.35A.35.35,0,0,0,96.26,105Z"/><path d="M91.76,105a.36.36,0,1,0,.36.36A.36.36,0,0,0,91.76,105Z"/><path d="M87.26,105a.36.36,0,1,0,.36.36A.36.36,0,0,0,87.26,105Z"/><path d="M82.76,105a.38.38,0,1,0,0,.75.38.38,0,0,0,0-.75Z"/><path d="M78.26,105a.38.38,0,1,0,0,.75.38.38,0,0,0,0-.75Z"/><path d="M73.76,105a.38.38,0,1,0,0,.75.38.38,0,0,0,0-.75Z"/><path d="M69.26,105a.38.38,0,1,0,0,.75.38.38,0,0,0,0-.75Z"/><path d="M64.76,104.94a.39.39,0,1,0,.39.38A.39.39,0,0,0,64.76,104.94Z"/><path d="M60.26,104.94a.39.39,0,1,0,.39.38A.39.39,0,0,0,60.26,104.94Z"/><path d="M55.76,104.94a.39.39,0,1,0,.39.38A.39.39,0,0,0,55.76,104.94Z"/><path d="M51.26,104.92a.4.4,0,1,0,.4.4A.4.4,0,0,0,51.26,104.92Z"/><path d="M46.76,104.92a.4.4,0,1,0,.4.4A.4.4,0,0,0,46.76,104.92Z"/><path d="M42.26,104.91a.41.41,0,1,0,.41.41A.41.41,0,0,0,42.26,104.91Z"/><path d="M37.76,104.91a.41.41,0,1,0,.41.41A.41.41,0,0,0,37.76,104.91Z"/><path d="M33.26,104.91a.41.41,0,1,0,.41.41A.41.41,0,0,0,33.26,104.91Z"/><path d="M28.76,104.9a.43.43,0,1,0,.42.42A.42.42,0,0,0,28.76,104.9Z"/><path d="M24.26,104.9a.43.43,0,1,0,.42.42A.42.42,0,0,0,24.26,104.9Z"/><path d="M19.76,104.89a.44.44,0,0,0-.44.43.44.44,0,1,0,.88,0A.44.44,0,0,0,19.76,104.89Z"/><path d="M15.26,104.89a.44.44,0,0,0-.44.43.44.44,0,1,0,.88,0A.44.44,0,0,0,15.26,104.89Z"/><path d="M10.76,104.87a.45.45,0,1,0,.45.45A.45.45,0,0,0,10.76,104.87Z"/><path d="M6.26,104.87a.45.45,0,1,0,.45.45A.45.45,0,0,0,6.26,104.87Z"/><path d="M1.76,104.87a.45.45,0,1,0,.45.45A.45.45,0,0,0,1.76,104.87Z"/><path d="M143.51,100.47a.35.35,0,1,0,.35.35A.35.35,0,0,0,143.51,100.47Z"/><path d="M139,100.47a.35.35,0,1,0,.35.35A.35.35,0,0,0,139,100.47Z"/><path d="M134.51,100.47a.35.35,0,1,0,.35.35A.35.35,0,0,0,134.51,100.47Z"/><path d="M130,100.47a.35.35,0,1,0,.35.35A.35.35,0,0,0,130,100.47Z"/><path d="M125.51,100.46a.36.36,0,1,0,.36.36A.36.36,0,0,0,125.51,100.46Z"/><path d="M121,100.46a.36.36,0,1,0,.36.36A.36.36,0,0,0,121,100.46Z"/><path d="M116.51,100.45a.38.38,0,1,0,0,.75.38.38,0,0,0,0-.75Z"/><path d="M112,100.45a.38.38,0,1,0,0,.75.38.38,0,0,0,0-.75Z"/><path d="M107.51,100.45a.38.38,0,1,0,0,.75.38.38,0,0,0,0-.75Z"/><path d="M103,100.44a.39.39,0,1,0,.39.38A.39.39,0,0,0,103,100.44Z"/><path d="M98.51,100.44a.39.39,0,1,0,.39.38A.39.39,0,0,0,98.51,100.44Z"/><path d="M94,100.44a.39.39,0,1,0,.39.38A.39.39,0,0,0,94,100.44Z"/><path d="M89.51,100.42a.4.4,0,1,0,.4.4A.4.4,0,0,0,89.51,100.42Z"/><path d="M85,100.42a.4.4,0,1,0,.4.4A.4.4,0,0,0,85,100.42Z"/><path d="M80.51,100.41a.41.41,0,1,0,.41.41A.41.41,0,0,0,80.51,100.41Z"/><path d="M76,100.41a.41.41,0,1,0,.41.41A.41.41,0,0,0,76,100.41Z"/><path d="M71.51,100.41a.41.41,0,1,0,.41.41A.41.41,0,0,0,71.51,100.41Z"/><path d="M67,100.41a.41.41,0,1,0,.41.41A.41.41,0,0,0,67,100.41Z"/><path d="M62.51,100.4a.43.43,0,1,0,.42.42A.42.42,0,0,0,62.51,100.4Z"/><path d="M58,100.39a.44.44,0,0,0-.44.43.44.44,0,0,0,.88,0A.44.44,0,0,0,58,100.39Z"/><path d="M53.51,100.39a.44.44,0,0,0-.44.43.44.44,0,0,0,.88,0A.44.44,0,0,0,53.51,100.39Z"/><path d="M49,100.37a.45.45,0,1,0,.45.45A.45.45,0,0,0,49,100.37Z"/><path d="M44.51,100.37a.45.45,0,1,0,.45.45A.45.45,0,0,0,44.51,100.37Z"/><path d="M40,100.37a.45.45,0,1,0,.45.45A.45.45,0,0,0,40,100.37Z"/><path d="M35.51,100.37a.45.45,0,1,0,.45.45A.45.45,0,0,0,35.51,100.37Z"/><path d="M31,100.36a.46.46,0,0,0-.46.46.45.45,0,0,0,.46.46.46.46,0,0,0,.46-.46A.47.47,0,0,0,31,100.36Z"/><path d="M26.51,100.35a.47.47,0,0,0-.47.47.47.47,0,1,0,.94,0A.47.47,0,0,0,26.51,100.35Z"/><path d="M22,100.35a.47.47,0,0,0-.47.47.47.47,0,1,0,.94,0A.47.47,0,0,0,22,100.35Z"/><path d="M17.51,100.35a.47.47,0,0,0-.47.47.47.47,0,1,0,.94,0A.47.47,0,0,0,17.51,100.35Z"/><path d="M13,100.35a.47.47,0,0,0-.47.47.47.47,0,1,0,.94,0A.47.47,0,0,0,13,100.35Z"/><path d="M8.51,100.33a.49.49,0,1,0,.49.49A.49.49,0,0,0,8.51,100.33Z"/><path d="M4,100.32a.5.5,0,0,0-.5.5.5.5,0,0,0,1,0A.5.5,0,0,0,4,100.32Z"/><path d="M141.26,95.94a.39.39,0,1,0,.39.38A.39.39,0,0,0,141.26,95.94Z"/><path d="M136.76,95.94a.39.39,0,1,0,.39.38A.39.39,0,0,0,136.76,95.94Z"/><path d="M132.26,95.94a.39.39,0,1,0,.39.38A.39.39,0,0,0,132.26,95.94Z"/><path d="M127.76,95.92a.4.4,0,1,0,.4.4A.4.4,0,0,0,127.76,95.92Z"/><path d="M123.26,95.92a.4.4,0,1,0,.4.4A.4.4,0,0,0,123.26,95.92Z"/><path d="M118.76,95.91a.41.41,0,1,0,.41.41A.41.41,0,0,0,118.76,95.91Z"/><path d="M114.26,95.91a.41.41,0,1,0,.41.41A.41.41,0,0,0,114.26,95.91Z"/><path d="M109.76,95.91a.41.41,0,1,0,.41.41A.41.41,0,0,0,109.76,95.91Z"/><path d="M105.26,95.9a.43.43,0,1,0,.42.42A.42.42,0,0,0,105.26,95.9Z"/><path d="M100.76,95.9a.43.43,0,1,0,.42.42A.42.42,0,0,0,100.76,95.9Z"/><path d="M96.26,95.89a.44.44,0,0,0-.44.43.44.44,0,0,0,.88,0A.44.44,0,0,0,96.26,95.89Z"/><path d="M91.76,95.89a.44.44,0,0,0-.44.43.44.44,0,0,0,.88,0A.44.44,0,0,0,91.76,95.89Z"/><path d="M87.26,95.87a.45.45,0,1,0,.45.45A.45.45,0,0,0,87.26,95.87Z"/><path d="M82.76,95.87a.45.45,0,1,0,.45.45A.45.45,0,0,0,82.76,95.87Z"/><path d="M78.26,95.87a.45.45,0,1,0,.45.45A.45.45,0,0,0,78.26,95.87Z"/><path d="M73.76,95.86a.46.46,0,0,0-.46.46.45.45,0,0,0,.46.46.46.46,0,0,0,.46-.46A.47.47,0,0,0,73.76,95.86Z"/><path d="M69.26,95.86a.46.46,0,0,0-.46.46.45.45,0,0,0,.46.46.46.46,0,0,0,.46-.46A.47.47,0,0,0,69.26,95.86Z"/><path d="M64.76,95.85a.47.47,0,0,0-.47.47.47.47,0,1,0,.94,0A.47.47,0,0,0,64.76,95.85Z"/><path d="M60.26,95.85a.47.47,0,0,0-.47.47.47.47,0,1,0,.94,0A.47.47,0,0,0,60.26,95.85Z"/><path d="M55.76,95.85a.47.47,0,0,0-.47.47.47.47,0,1,0,.94,0A.47.47,0,0,0,55.76,95.85Z"/><path d="M51.26,95.83a.49.49,0,1,0,.49.49A.49.49,0,0,0,51.26,95.83Z"/><path d="M46.76,95.83a.49.49,0,1,0,.49.49A.49.49,0,0,0,46.76,95.83Z"/><path d="M42.26,95.82a.5.5,0,0,0-.5.5.5.5,0,0,0,1,0A.5.5,0,0,0,42.26,95.82Z"/><path d="M37.76,95.82a.5.5,0,0,0-.5.5.5.5,0,0,0,1,0A.5.5,0,0,0,37.76,95.82Z"/><path d="M33.26,95.82a.5.5,0,0,0-.5.5.5.5,0,1,0,1,0A.5.5,0,0,0,33.26,95.82Z"/><path d="M28.76,95.81a.51.51,0,1,0,.51.51A.51.51,0,0,0,28.76,95.81Z"/><path d="M24.26,95.81a.51.51,0,1,0,.51.51A.51.51,0,0,0,24.26,95.81Z"/><path d="M19.76,95.8a.52.52,0,0,0-.52.52.52.52,0,1,0,1,0A.52.52,0,0,0,19.76,95.8Z"/><path d="M15.26,95.8a.52.52,0,0,0-.52.52.52.52,0,1,0,1,0A.52.52,0,0,0,15.26,95.8Z"/><path d="M10.76,95.79a.54.54,0,1,0,.54.53A.54.54,0,0,0,10.76,95.79Z"/><path d="M6.26,95.79a.54.54,0,1,0,.54.53A.54.54,0,0,0,6.26,95.79Z"/><path d="M1.76,95.79a.54.54,0,1,0,.54.53A.54.54,0,0,0,1.76,95.79Z"/><path d="M143.51,91.4a.43.43,0,1,0,.42.42A.42.42,0,0,0,143.51,91.4Z"/><path d="M139,91.4a.43.43,0,1,0,.42.42A.42.42,0,0,0,139,91.4Z"/><path d="M134.51,91.39a.44.44,0,0,0-.44.43.44.44,0,0,0,.88,0A.44.44,0,0,0,134.51,91.39Z"/><path d="M130,91.39a.44.44,0,0,0-.44.43.44.44,0,0,0,.88,0A.44.44,0,0,0,130,91.39Z"/><path d="M125.51,91.37a.45.45,0,1,0,.45.45A.45.45,0,0,0,125.51,91.37Z"/><path d="M121,91.37a.45.45,0,1,0,.45.45A.45.45,0,0,0,121,91.37Z"/><path d="M116.51,91.37a.45.45,0,1,0,.45.45A.45.45,0,0,0,116.51,91.37Z"/><path d="M112,91.36a.46.46,0,0,0-.46.46.45.45,0,0,0,.46.46.46.46,0,0,0,.46-.46A.47.47,0,0,0,112,91.36Z"/><path d="M107.51,91.36a.46.46,0,0,0-.46.46.45.45,0,0,0,.46.46.46.46,0,0,0,.46-.46A.47.47,0,0,0,107.51,91.36Z"/><path d="M103,91.35a.47.47,0,0,0-.47.47.47.47,0,1,0,.94,0A.47.47,0,0,0,103,91.35Z"/><path d="M98.51,91.35a.47.47,0,0,0-.47.47.47.47,0,1,0,.94,0A.47.47,0,0,0,98.51,91.35Z"/><path d="M94,91.35a.47.47,0,0,0-.47.47.47.47,0,1,0,.94,0A.47.47,0,0,0,94,91.35Z"/><path d="M89.51,91.35a.47.47,0,0,0-.47.47.47.47,0,1,0,.94,0A.47.47,0,0,0,89.51,91.35Z"/><path d="M85,91.33a.49.49,0,1,0,.49.49A.49.49,0,0,0,85,91.33Z"/><path d="M80.51,91.32a.5.5,0,0,0-.5.5.5.5,0,0,0,1,0A.5.5,0,0,0,80.51,91.32Z"/><path d="M76,91.32a.5.5,0,0,0-.5.5.5.5,0,0,0,1,0A.5.5,0,0,0,76,91.32Z"/><path d="M71.51,91.32a.5.5,0,0,0-.5.5.5.5,0,0,0,1,0A.5.5,0,0,0,71.51,91.32Z"/><path d="M67,91.32a.5.5,0,0,0-.5.5.5.5,0,0,0,1,0A.5.5,0,0,0,67,91.32Z"/><path d="M62.51,91.31a.51.51,0,1,0,.51.51A.51.51,0,0,0,62.51,91.31Z"/><path d="M58,91.31a.51.51,0,1,0,.51.51A.51.51,0,0,0,58,91.31Z"/><path d="M53.51,91.3a.52.52,0,0,0-.52.52.52.52,0,1,0,1,0A.52.52,0,0,0,53.51,91.3Z"/><path d="M49,91.29a.54.54,0,1,0,.54.53A.54.54,0,0,0,49,91.29Z"/><path d="M44.51,91.29a.54.54,0,1,0,.54.53A.54.54,0,0,0,44.51,91.29Z"/><path d="M40,91.29a.54.54,0,1,0,.54.53A.54.54,0,0,0,40,91.29Z"/><path d="M35.51,91.29a.54.54,0,1,0,.54.53A.54.54,0,0,0,35.51,91.29Z"/><path d="M31,91.27a.55.55,0,1,0,.55.55A.55.55,0,0,0,31,91.27Z"/><path d="M26.51,91.26a.56.56,0,1,0,.56.56A.56.56,0,0,0,26.51,91.26Z"/><path d="M22,91.26a.56.56,0,1,0,.56.56A.56.56,0,0,0,22,91.26Z"/><path d="M17.51,91.25a.56.56,0,0,0-.57.57.57.57,0,1,0,1.14,0A.56.56,0,0,0,17.51,91.25Z"/><path d="M13,91.25a.56.56,0,0,0-.57.57.57.57,0,1,0,1.14,0A.56.56,0,0,0,13,91.25Z"/><path d="M8.51,91.25a.56.56,0,0,0-.57.57.57.57,0,1,0,1.14,0A.56.56,0,0,0,8.51,91.25Z"/><path d="M4,91.25a.56.56,0,0,0-.57.57.57.57,0,1,0,1.14,0A.56.56,0,0,0,4,91.25Z"/><path d="M141.26,86.85a.47.47,0,0,0-.47.47.47.47,0,1,0,.94,0A.47.47,0,0,0,141.26,86.85Z"/><path d="M136.76,86.85a.47.47,0,0,0-.47.47.47.47,0,1,0,.94,0A.47.47,0,0,0,136.76,86.85Z"/><path d="M132.26,86.85a.47.47,0,0,0-.47.47.47.47,0,1,0,.94,0A.47.47,0,0,0,132.26,86.85Z"/><path d="M127.76,86.83a.49.49,0,1,0,.49.49A.49.49,0,0,0,127.76,86.83Z"/><path d="M123.26,86.83a.49.49,0,1,0,.49.49A.49.49,0,0,0,123.26,86.83Z"/><path d="M118.76,86.82a.5.5,0,0,0-.5.5.5.5,0,0,0,1,0A.5.5,0,0,0,118.76,86.82Z"/><path d="M114.26,86.82a.5.5,0,0,0-.5.5.5.5,0,0,0,1,0A.5.5,0,0,0,114.26,86.82Z"/><path d="M109.76,86.82a.5.5,0,0,0-.5.5.5.5,0,0,0,1,0A.5.5,0,0,0,109.76,86.82Z"/><path d="M105.26,86.81a.51.51,0,1,0,.51.51A.51.51,0,0,0,105.26,86.81Z"/><path d="M100.76,86.81a.51.51,0,1,0,.51.51A.51.51,0,0,0,100.76,86.81Z"/><path d="M96.26,86.8a.52.52,0,0,0-.52.52.52.52,0,1,0,1,0A.52.52,0,0,0,96.26,86.8Z"/><path d="M91.76,86.8a.52.52,0,0,0-.52.52.52.52,0,1,0,1,0A.52.52,0,0,0,91.76,86.8Z"/><path d="M87.26,86.79a.54.54,0,1,0,.54.53A.54.54,0,0,0,87.26,86.79Z"/><path d="M82.76,86.79a.54.54,0,1,0,.54.53A.54.54,0,0,0,82.76,86.79Z"/><path d="M78.26,86.79a.54.54,0,1,0,.54.53A.54.54,0,0,0,78.26,86.79Z"/><path d="M73.76,86.77a.55.55,0,1,0,.55.55A.55.55,0,0,0,73.76,86.77Z"/><path d="M69.26,86.77a.55.55,0,1,0,.55.55A.55.55,0,0,0,69.26,86.77Z"/><path d="M64.76,86.76a.56.56,0,1,0,.56.56A.56.56,0,0,0,64.76,86.76Z"/><path d="M60.26,86.76a.56.56,0,1,0,.56.56A.56.56,0,0,0,60.26,86.76Z"/><path d="M55.76,86.75a.56.56,0,0,0-.57.57.57.57,0,1,0,1.14,0A.56.56,0,0,0,55.76,86.75Z"/><path d="M51.26,86.75a.56.56,0,0,0-.57.57.57.57,0,1,0,1.14,0A.56.56,0,0,0,51.26,86.75Z"/><path d="M46.76,86.75a.56.56,0,0,0-.57.57.57.57,0,1,0,1.14,0A.56.56,0,0,0,46.76,86.75Z"/><path d="M42.26,86.74a.59.59,0,1,0,.59.58A.59.59,0,0,0,42.26,86.74Z"/><path d="M37.76,86.74a.59.59,0,1,0,.59.58A.59.59,0,0,0,37.76,86.74Z"/><path d="M33.26,86.72a.6.6,0,1,0,.6.6A.6.6,0,0,0,33.26,86.72Z"/><path d="M28.76,86.72a.6.6,0,1,0,.6.6A.6.6,0,0,0,28.76,86.72Z"/><path d="M24.26,86.71a.61.61,0,1,0,.61.61A.61.61,0,0,0,24.26,86.71Z"/><path d="M19.76,86.71a.61.61,0,1,0,.61.61A.61.61,0,0,0,19.76,86.71Z"/><path d="M15.26,86.71a.61.61,0,1,0,.61.61A.61.61,0,0,0,15.26,86.71Z"/><path d="M10.76,86.7a.63.63,0,0,0,0,1.25.63.63,0,0,0,0-1.25Z"/><path d="M6.26,86.7a.63.63,0,0,0,0,1.25.63.63,0,0,0,0-1.25Z"/><path d="M1.76,86.69a.64.64,0,0,0-.64.63.64.64,0,0,0,1.28,0A.64.64,0,0,0,1.76,86.69Z"/><path d="M143.51,82.31a.51.51,0,1,0,.51.51A.51.51,0,0,0,143.51,82.31Z"/><path d="M139,82.31a.51.51,0,1,0,.51.51A.51.51,0,0,0,139,82.31Z"/><path d="M134.51,82.3a.52.52,0,0,0-.52.52.52.52,0,1,0,1,0A.52.52,0,0,0,134.51,82.3Z"/><path d="M130,82.3a.52.52,0,0,0-.52.52.52.52,0,1,0,1,0A.52.52,0,0,0,130,82.3Z"/><path d="M125.51,82.29a.54.54,0,1,0,.54.53A.54.54,0,0,0,125.51,82.29Z"/><path d="M121,82.29a.54.54,0,1,0,.54.53A.54.54,0,0,0,121,82.29Z"/><path d="M116.51,82.29a.54.54,0,1,0,.54.53A.54.54,0,0,0,116.51,82.29Z"/><path d="M112,82.29a.54.54,0,1,0,.54.53A.54.54,0,0,0,112,82.29Z"/><path d="M107.51,82.27a.55.55,0,1,0,.55.55A.55.55,0,0,0,107.51,82.27Z"/><path d="M103,82.26a.56.56,0,1,0,.56.56A.56.56,0,0,0,103,82.26Z"/><path d="M98.51,82.26a.56.56,0,1,0,.56.56A.56.56,0,0,0,98.51,82.26Z"/><path d="M94,82.25a.56.56,0,0,0-.57.57.57.57,0,1,0,1.14,0A.56.56,0,0,0,94,82.25Z"/><path d="M89.51,82.25a.56.56,0,0,0-.57.57.57.57,0,1,0,1.14,0A.56.56,0,0,0,89.51,82.25Z"/><path d="M85,82.25a.56.56,0,0,0-.57.57.57.57,0,1,0,1.14,0A.56.56,0,0,0,85,82.25Z"/><path d="M80.51,82.25a.56.56,0,0,0-.57.57.57.57,0,1,0,1.14,0A.56.56,0,0,0,80.51,82.25Z"/><path d="M76,82.24a.59.59,0,1,0,.59.58A.59.59,0,0,0,76,82.24Z"/><path d="M71.51,82.22a.6.6,0,1,0,.6.6A.6.6,0,0,0,71.51,82.22Z"/><path d="M67,82.22a.6.6,0,1,0,.6.6A.6.6,0,0,0,67,82.22Z"/><path d="M62.51,82.21a.61.61,0,1,0,.61.61A.61.61,0,0,0,62.51,82.21Z"/><path d="M58,82.21a.61.61,0,1,0,.61.61A.61.61,0,0,0,58,82.21Z"/><path d="M53.51,82.21a.61.61,0,1,0,.61.61A.61.61,0,0,0,53.51,82.21Z"/><path d="M49,82.2a.63.63,0,0,0,0,1.25.63.63,0,0,0,0-1.25Z"/><path d="M44.51,82.2a.63.63,0,0,0,0,1.25.63.63,0,0,0,0-1.25Z"/><path d="M40,82.19a.64.64,0,0,0-.64.63.64.64,0,0,0,1.28,0A.64.64,0,0,0,40,82.19Z"/><path d="M35.51,82.19a.64.64,0,0,0-.64.63.64.64,0,0,0,1.28,0A.64.64,0,0,0,35.51,82.19Z"/><path d="M31,82.17a.65.65,0,1,0,.65.65A.65.65,0,0,0,31,82.17Z"/><path d="M26.51,82.17a.65.65,0,1,0,.65.65A.65.65,0,0,0,26.51,82.17Z"/><path d="M22,82.16a.66.66,0,1,0,.66.66A.66.66,0,0,0,22,82.16Z"/><path d="M17.51,82.16a.66.66,0,1,0,.66.66A.66.66,0,0,0,17.51,82.16Z"/><path d="M13,82.16a.66.66,0,1,0,.66.66A.66.66,0,0,0,13,82.16Z"/><path d="M8.51,82.15a.67.67,0,0,0-.67.67.67.67,0,1,0,1.34,0A.67.67,0,0,0,8.51,82.15Z"/><path d="M4,82.15a.67.67,0,0,0-.67.67.67.67,0,1,0,1.34,0A.67.67,0,0,0,4,82.15Z"/><path d="M141.26,77.76a.56.56,0,1,0,.56.56A.56.56,0,0,0,141.26,77.76Z"/><path d="M136.76,77.75a.56.56,0,0,0-.57.57.57.57,0,1,0,1.14,0A.56.56,0,0,0,136.76,77.75Z"/><path d="M132.26,77.75a.56.56,0,0,0-.57.57.57.57,0,1,0,1.14,0A.56.56,0,0,0,132.26,77.75Z"/><path d="M127.76,77.75a.56.56,0,0,0-.57.57.57.57,0,1,0,1.14,0A.56.56,0,0,0,127.76,77.75Z"/><path d="M123.26,77.75a.56.56,0,0,0-.57.57.57.57,0,1,0,1.14,0A.56.56,0,0,0,123.26,77.75Z"/><path d="M118.76,77.74a.59.59,0,1,0,.59.58A.59.59,0,0,0,118.76,77.74Z"/><path d="M114.26,77.74a.59.59,0,1,0,.59.58A.59.59,0,0,0,114.26,77.74Z"/><path d="M109.76,77.72a.6.6,0,1,0,.6.6A.6.6,0,0,0,109.76,77.72Z"/><path d="M105.26,77.71a.61.61,0,1,0,.61.61A.61.61,0,0,0,105.26,77.71Z"/><path d="M100.76,77.71a.61.61,0,1,0,.61.61A.61.61,0,0,0,100.76,77.71Z"/><path d="M96.26,77.71a.61.61,0,1,0,.61.61A.61.61,0,0,0,96.26,77.71Z"/><path d="M91.76,77.71a.61.61,0,1,0,.61.61A.61.61,0,0,0,91.76,77.71Z"/><path d="M87.26,77.7a.63.63,0,0,0,0,1.25.63.63,0,0,0,0-1.25Z"/><path d="M82.76,77.7a.63.63,0,0,0,0,1.25.63.63,0,0,0,0-1.25Z"/><path d="M78.26,77.69a.64.64,0,0,0-.64.63.64.64,0,0,0,1.28,0A.64.64,0,0,0,78.26,77.69Z"/><path d="M73.76,77.67a.65.65,0,1,0,.65.65A.65.65,0,0,0,73.76,77.67Z"/><path d="M69.26,77.67a.65.65,0,1,0,.65.65A.65.65,0,0,0,69.26,77.67Z"/><path d="M64.76,77.66a.66.66,0,1,0,.66.66A.66.66,0,0,0,64.76,77.66Z"/><path d="M60.26,77.66a.66.66,0,1,0,.66.66A.66.66,0,0,0,60.26,77.66Z"/><path d="M55.76,77.66a.66.66,0,1,0,.66.66A.66.66,0,0,0,55.76,77.66Z"/><path d="M51.26,77.66a.66.66,0,1,0,.66.66A.66.66,0,0,0,51.26,77.66Z"/><path d="M46.76,77.65a.67.67,0,0,0-.67.67.67.67,0,1,0,1.34,0A.67.67,0,0,0,46.76,77.65Z"/><path d="M42.26,77.64a.68.68,0,0,0-.69.68.69.69,0,0,0,1.38,0A.68.68,0,0,0,42.26,77.64Z"/><path d="M37.76,77.64a.68.68,0,0,0-.69.68.69.69,0,0,0,1.38,0A.68.68,0,0,0,37.76,77.64Z"/><path d="M33.26,77.62a.7.7,0,1,0,.7.7A.7.7,0,0,0,33.26,77.62Z"/><path d="M28.76,77.62a.7.7,0,1,0,.7.7A.7.7,0,0,0,28.76,77.62Z"/><path d="M24.26,77.61a.71.71,0,1,0,.71.71A.71.71,0,0,0,24.26,77.61Z"/><path d="M19.76,77.61a.71.71,0,1,0,.71.71A.71.71,0,0,0,19.76,77.61Z"/><path d="M15.26,77.61a.71.71,0,1,0,.71.71A.71.71,0,0,0,15.26,77.61Z"/><path d="M10.76,77.6a.72.72,0,0,0-.72.72.72.72,0,1,0,1.44,0A.72.72,0,0,0,10.76,77.6Z"/><path d="M6.26,77.6a.72.72,0,0,0-.72.72.72.72,0,1,0,1.44,0A.72.72,0,0,0,6.26,77.6Z"/><path d="M1.76,77.59a.74.74,0,1,0,.74.73A.74.74,0,0,0,1.76,77.59Z"/><path d="M143.51,73.21a.61.61,0,1,0,.61.61A.61.61,0,0,0,143.51,73.21Z"/><path d="M139,73.21a.61.61,0,1,0,.61.61A.61.61,0,0,0,139,73.21Z"/><path d="M134.51,73.21a.61.61,0,1,0,.61.61A.61.61,0,0,0,134.51,73.21Z"/><path d="M130,73.21a.61.61,0,1,0,.61.61A.61.61,0,0,0,130,73.21Z"/><path d="M125.51,73.2a.63.63,0,0,0,0,1.25.63.63,0,0,0,0-1.25Z"/><path d="M121,73.2a.63.63,0,0,0,0,1.25.63.63,0,0,0,0-1.25Z"/><path d="M116.51,73.19a.64.64,0,0,0-.64.63.64.64,0,0,0,1.28,0A.64.64,0,0,0,116.51,73.19Z"/><path d="M112,73.19a.64.64,0,0,0-.64.63.64.64,0,0,0,1.28,0A.64.64,0,0,0,112,73.19Z"/><path d="M107.51,73.17a.65.65,0,1,0,.65.65A.65.65,0,0,0,107.51,73.17Z"/><path d="M103,73.16a.66.66,0,1,0,.66.66A.66.66,0,0,0,103,73.16Z"/><path d="M98.51,73.16a.66.66,0,1,0,.66.66A.66.66,0,0,0,98.51,73.16Z"/><path d="M94,73.16a.66.66,0,1,0,.66.66A.66.66,0,0,0,94,73.16Z"/><path d="M89.51,73.16a.66.66,0,1,0,.66.66A.66.66,0,0,0,89.51,73.16Z"/><path d="M85,73.15a.67.67,0,0,0-.67.67.67.67,0,1,0,1.34,0A.67.67,0,0,0,85,73.15Z"/><path d="M80.51,73.15a.67.67,0,0,0-.67.67.67.67,0,1,0,1.34,0A.67.67,0,0,0,80.51,73.15Z"/><path d="M76,73.14a.68.68,0,0,0-.69.68.69.69,0,0,0,1.38,0A.68.68,0,0,0,76,73.14Z"/><path d="M71.51,73.12a.7.7,0,1,0,.7.7A.7.7,0,0,0,71.51,73.12Z"/><path d="M67,73.12a.7.7,0,1,0,.7.7A.7.7,0,0,0,67,73.12Z"/><path d="M62.51,73.11a.71.71,0,1,0,.71.71A.71.71,0,0,0,62.51,73.11Z"/><path d="M58,73.11a.71.71,0,1,0,.71.71A.71.71,0,0,0,58,73.11Z"/><path d="M53.51,73.11a.71.71,0,1,0,.71.71A.71.71,0,0,0,53.51,73.11Z"/><path d="M49,73.11a.71.71,0,1,0,.71.71A.71.71,0,0,0,49,73.11Z"/><path d="M44.51,73.1a.72.72,0,0,0-.72.72.72.72,0,1,0,1.44,0A.72.72,0,0,0,44.51,73.1Z"/><path d="M40,73.09a.74.74,0,1,0,.74.73A.74.74,0,0,0,40,73.09Z"/><path d="M35.51,73.09a.74.74,0,1,0,.74.73A.74.74,0,0,0,35.51,73.09Z"/><path d="M31,73.07a.75.75,0,1,0,.75.75A.76.76,0,0,0,31,73.07Z"/><path d="M26.51,73.07a.75.75,0,1,0,.75.75A.76.76,0,0,0,26.51,73.07Z"/><path d="M22,73.06a.76.76,0,1,0,.76.76A.76.76,0,0,0,22,73.06Z"/><path d="M17.51,73.06a.76.76,0,1,0,.76.76A.76.76,0,0,0,17.51,73.06Z"/><path d="M13,73.05a.76.76,0,0,0-.77.77.77.77,0,1,0,1.54,0A.76.76,0,0,0,13,73.05Z"/><path d="M8.51,73a.79.79,0,1,0,.78.78A.78.78,0,0,0,8.51,73Z"/><path d="M4,73a.79.79,0,1,0,.78.78A.78.78,0,0,0,4,73Z"/><path d="M141.26,68.66a.66.66,0,1,0,.66.66A.66.66,0,0,0,141.26,68.66Z"/><path d="M136.76,68.66a.66.66,0,1,0,.66.66A.66.66,0,0,0,136.76,68.66Z"/><path d="M132.26,68.66a.66.66,0,1,0,.66.66A.66.66,0,0,0,132.26,68.66Z"/><path d="M127.76,68.65a.67.67,0,0,0-.67.67.67.67,0,1,0,1.34,0A.67.67,0,0,0,127.76,68.65Z"/><path d="M123.26,68.65a.67.67,0,0,0-.67.67.67.67,0,1,0,1.34,0A.67.67,0,0,0,123.26,68.65Z"/><path d="M118.76,68.64a.68.68,0,0,0-.69.68.69.69,0,0,0,1.38,0A.68.68,0,0,0,118.76,68.64Z"/><path d="M114.26,68.64a.68.68,0,0,0-.69.68.69.69,0,0,0,1.38,0A.68.68,0,0,0,114.26,68.64Z"/><path d="M109.76,68.62a.7.7,0,1,0,.7.7A.7.7,0,0,0,109.76,68.62Z"/><path d="M105.26,68.62a.7.7,0,1,0,.7.7A.7.7,0,0,0,105.26,68.62Z"/><path d="M100.76,68.61a.71.71,0,1,0,.71.71A.71.71,0,0,0,100.76,68.61Z"/><path d="M96.26,68.61a.71.71,0,1,0,.71.71A.71.71,0,0,0,96.26,68.61Z"/><path d="M91.76,68.61a.71.71,0,1,0,.71.71A.71.71,0,0,0,91.76,68.61Z"/><path d="M87.26,68.6a.72.72,0,0,0-.72.72.72.72,0,1,0,1.44,0A.72.72,0,0,0,87.26,68.6Z"/><path d="M82.76,68.6a.72.72,0,0,0-.72.72.72.72,0,1,0,1.44,0A.72.72,0,0,0,82.76,68.6Z"/><path d="M78.26,68.59a.74.74,0,1,0,.74.73A.74.74,0,0,0,78.26,68.59Z"/><path d="M73.76,68.59a.74.74,0,1,0,.74.73A.74.74,0,0,0,73.76,68.59Z"/><path d="M69.26,68.57a.75.75,0,1,0,.75.75A.76.76,0,0,0,69.26,68.57Z"/><path d="M64.76,68.56a.76.76,0,1,0,.76.76A.76.76,0,0,0,64.76,68.56Z"/><path d="M60.26,68.56a.76.76,0,1,0,.76.76A.76.76,0,0,0,60.26,68.56Z"/><path d="M55.76,68.55a.76.76,0,0,0-.77.77.77.77,0,1,0,1.54,0A.76.76,0,0,0,55.76,68.55Z"/><path d="M51.26,68.55a.76.76,0,0,0-.77.77.77.77,0,1,0,1.54,0A.76.76,0,0,0,51.26,68.55Z"/><path d="M46.76,68.54a.79.79,0,1,0,.78.78A.78.78,0,0,0,46.76,68.54Z"/><path d="M42.26,68.54a.79.79,0,1,0,.78.78A.78.78,0,0,0,42.26,68.54Z"/><path d="M37.76,68.54a.79.79,0,1,0,.78.78A.78.78,0,0,0,37.76,68.54Z"/><path d="M33.26,68.52a.8.8,0,1,0,.8.8A.8.8,0,0,0,33.26,68.52Z"/><path d="M28.76,68.52a.8.8,0,1,0,.8.8A.8.8,0,0,0,28.76,68.52Z"/><path d="M24.26,68.51a.81.81,0,1,0,.81.81A.81.81,0,0,0,24.26,68.51Z"/><path d="M19.76,68.51a.81.81,0,1,0,.81.81A.81.81,0,0,0,19.76,68.51Z"/><path d="M15.26,68.5a.83.83,0,0,0,0,1.65.83.83,0,0,0,0-1.65Z"/><path d="M10.76,68.49a.84.84,0,0,0-.84.83.85.85,0,0,0,.84.84.84.84,0,0,0,.83-.84A.83.83,0,0,0,10.76,68.49Z"/><path d="M6.26,68.49a.84.84,0,0,0-.84.83.85.85,0,0,0,.84.84.84.84,0,0,0,.83-.84A.83.83,0,0,0,6.26,68.49Z"/><path d="M1.76,68.47a.85.85,0,1,0,.85.85A.85.85,0,0,0,1.76,68.47Z"/><path d="M143.51,64.11a.71.71,0,1,0,.71.71A.71.71,0,0,0,143.51,64.11Z"/><path d="M139,64.11a.71.71,0,1,0,.71.71A.71.71,0,0,0,139,64.11Z"/><path d="M134.51,64.11a.71.71,0,1,0,.71.71A.71.71,0,0,0,134.51,64.11Z"/><path d="M130,64.11a.71.71,0,1,0,.71.71A.71.71,0,0,0,130,64.11Z"/><path d="M125.51,64.1a.72.72,0,0,0-.72.72.72.72,0,1,0,1.44,0A.72.72,0,0,0,125.51,64.1Z"/><path d="M121,64.1a.72.72,0,0,0-.72.72.72.72,0,1,0,1.44,0A.72.72,0,0,0,121,64.1Z"/><path d="M116.51,64.09a.74.74,0,1,0,.74.73A.74.74,0,0,0,116.51,64.09Z"/><path d="M112,64.09a.74.74,0,1,0,.74.73A.74.74,0,0,0,112,64.09Z"/><path d="M107.51,64.07a.75.75,0,1,0,.75.75A.76.76,0,0,0,107.51,64.07Z"/><path d="M103,64.07a.75.75,0,1,0,.75.75A.76.76,0,0,0,103,64.07Z"/><path d="M98.51,64.06a.76.76,0,1,0,.76.76A.76.76,0,0,0,98.51,64.06Z"/><path d="M94,64.05a.76.76,0,0,0-.77.77.77.77,0,1,0,1.54,0A.76.76,0,0,0,94,64.05Z"/><path d="M89.51,64.05a.76.76,0,0,0-.77.77.77.77,0,1,0,1.54,0A.76.76,0,0,0,89.51,64.05Z"/><path d="M85,64a.79.79,0,1,0,.78.78A.78.78,0,0,0,85,64Z"/><path d="M80.51,64a.79.79,0,1,0,.78.78A.78.78,0,0,0,80.51,64Z"/><path d="M76,64a.79.79,0,1,0,.78.78A.78.78,0,0,0,76,64Z"/><path d="M71.51,64a.79.79,0,1,0,.78.78A.78.78,0,0,0,71.51,64Z"/><path d="M67,64a.8.8,0,1,0,.8.8A.8.8,0,0,0,67,64Z"/><path d="M62.51,64a.81.81,0,1,0,.81.81A.81.81,0,0,0,62.51,64Z"/><path d="M58,64a.81.81,0,1,0,.81.81A.81.81,0,0,0,58,64Z"/><path d="M53.51,64a.83.83,0,0,0,0,1.65.83.83,0,0,0,0-1.65Z"/><path d="M49,64a.83.83,0,0,0,0,1.65A.83.83,0,0,0,49,64Z"/><path d="M44.51,64a.84.84,0,0,0-.84.83.85.85,0,0,0,.84.84.84.84,0,0,0,.83-.84A.83.83,0,0,0,44.51,64Z"/><path d="M40,64a.84.84,0,0,0-.84.83.85.85,0,0,0,.84.84.84.84,0,0,0,.83-.84A.83.83,0,0,0,40,64Z"/><path d="M35.51,64a.85.85,0,1,0,.85.85A.85.85,0,0,0,35.51,64Z"/><path d="M31,64a.86.86,0,1,0,.86.86A.86.86,0,0,0,31,64Z"/><path d="M26.51,64a.86.86,0,1,0,.86.86A.86.86,0,0,0,26.51,64Z"/><path d="M22,64a.88.88,0,1,0,.87.87A.87.87,0,0,0,22,64Z"/><path d="M17.51,64a.88.88,0,1,0,.87.87A.87.87,0,0,0,17.51,64Z"/><path d="M13,64a.88.88,0,1,0,.87.87A.87.87,0,0,0,13,64Z"/><path d="M8.51,63.94a.89.89,0,1,0,.89.88A.88.88,0,0,0,8.51,63.94Z"/><path d="M4,63.94a.89.89,0,1,0,.89.88A.88.88,0,0,0,4,63.94Z"/><path d="M141.26,59.56a.76.76,0,1,0,.76.76A.76.76,0,0,0,141.26,59.56Z"/><path d="M136.76,59.56a.76.76,0,1,0,.76.76A.76.76,0,0,0,136.76,59.56Z"/><path d="M132.26,59.55a.76.76,0,0,0-.77.77.77.77,0,1,0,1.54,0A.76.76,0,0,0,132.26,59.55Z"/><path d="M127.76,59.55a.76.76,0,0,0-.77.77.77.77,0,1,0,1.54,0A.76.76,0,0,0,127.76,59.55Z"/><path d="M123.26,59.54a.79.79,0,1,0,.78.78A.78.78,0,0,0,123.26,59.54Z"/><path d="M118.76,59.54a.79.79,0,1,0,.78.78A.78.78,0,0,0,118.76,59.54Z"/><path d="M114.26,59.54a.79.79,0,1,0,.78.78A.78.78,0,0,0,114.26,59.54Z"/><path d="M109.76,59.52a.8.8,0,1,0,.8.8A.8.8,0,0,0,109.76,59.52Z"/><path d="M105.26,59.52a.8.8,0,1,0,.8.8A.8.8,0,0,0,105.26,59.52Z"/><path d="M100.76,59.51a.81.81,0,1,0,.81.81A.81.81,0,0,0,100.76,59.51Z"/><path d="M96.26,59.5a.83.83,0,0,0,0,1.65.83.83,0,0,0,0-1.65Z"/><path d="M91.76,59.5a.83.83,0,0,0,0,1.65.83.83,0,0,0,0-1.65Z"/><path d="M87.26,59.49a.84.84,0,0,0-.84.83.85.85,0,0,0,.84.84.84.84,0,0,0,.83-.84A.83.83,0,0,0,87.26,59.49Z"/><path d="M82.76,59.49a.84.84,0,0,0-.84.83.85.85,0,0,0,.84.84.84.84,0,0,0,.83-.84A.83.83,0,0,0,82.76,59.49Z"/><path d="M78.26,59.47a.85.85,0,1,0,.85.85A.85.85,0,0,0,78.26,59.47Z"/><path d="M73.76,59.47a.85.85,0,1,0,.85.85A.85.85,0,0,0,73.76,59.47Z"/><path d="M69.26,59.46a.86.86,0,1,0,.86.86A.86.86,0,0,0,69.26,59.46Z"/><path d="M64.76,59.45a.88.88,0,1,0,.87.87A.87.87,0,0,0,64.76,59.45Z"/><path d="M60.26,59.45a.88.88,0,1,0,.87.87A.87.87,0,0,0,60.26,59.45Z"/><path d="M55.76,59.45a.88.88,0,1,0,.87.87A.87.87,0,0,0,55.76,59.45Z"/><path d="M51.26,59.45a.88.88,0,1,0,.87.87A.87.87,0,0,0,51.26,59.45Z"/><path d="M46.76,59.44a.89.89,0,1,0,.89.88A.88.88,0,0,0,46.76,59.44Z"/><path d="M42.26,59.44a.89.89,0,1,0,.89.88A.88.88,0,0,0,42.26,59.44Z"/><path d="M37.76,59.42a.9.9,0,1,0,.9.9A.9.9,0,0,0,37.76,59.42Z"/><path d="M33.26,59.41a.91.91,0,1,0,.91.91A.91.91,0,0,0,33.26,59.41Z"/><path d="M28.76,59.41a.91.91,0,1,0,.91.91A.91.91,0,0,0,28.76,59.41Z"/><path d="M24.26,59.4a.93.93,0,1,0,.92.92A.92.92,0,0,0,24.26,59.4Z"/><path d="M19.76,59.4a.93.93,0,1,0,.92.92A.92.92,0,0,0,19.76,59.4Z"/><path d="M15.26,59.39a.94.94,0,1,0,.94.93A.93.93,0,0,0,15.26,59.39Z"/><path d="M10.76,59.39a.94.94,0,1,0,.94.93A.93.93,0,0,0,10.76,59.39Z"/><path d="M6.26,59.37a1,1,0,1,0,1,1A1,1,0,0,0,6.26,59.37Z"/><path d="M1.76,59.36a1,1,0,1,0,1,1A1,1,0,0,0,1.76,59.36Z"/><path d="M143.51,55a.81.81,0,1,0,.81.81A.81.81,0,0,0,143.51,55Z"/><path d="M139,55a.81.81,0,1,0,.81.81A.81.81,0,0,0,139,55Z"/><path d="M134.51,55a.81.81,0,1,0,.81.81A.81.81,0,0,0,134.51,55Z"/><path d="M130,55a.83.83,0,0,0,0,1.65A.83.83,0,0,0,130,55Z"/><path d="M125.51,55a.83.83,0,0,0,0,1.65.83.83,0,0,0,0-1.65Z"/><path d="M121,55a.84.84,0,0,0-.84.83.85.85,0,0,0,.84.84.84.84,0,0,0,.83-.84A.83.83,0,0,0,121,55Z"/><path d="M116.51,55a.85.85,0,1,0,.85.85A.85.85,0,0,0,116.51,55Z"/><path d="M112,55a.85.85,0,1,0,.85.85A.85.85,0,0,0,112,55Z"/><path d="M107.51,55a.86.86,0,1,0,.86.86A.86.86,0,0,0,107.51,55Z"/><path d="M103,55a.86.86,0,1,0,.86.86A.86.86,0,0,0,103,55Z"/><path d="M98.51,55a.88.88,0,1,0,.87.87A.87.87,0,0,0,98.51,55Z"/><path d="M94,55a.88.88,0,1,0,.87.87A.87.87,0,0,0,94,55Z"/><path d="M89.51,55a.88.88,0,1,0,.87.87A.87.87,0,0,0,89.51,55Z"/><path d="M85,54.94a.89.89,0,1,0,.89.88A.88.88,0,0,0,85,54.94Z"/><path d="M80.51,54.94a.89.89,0,1,0,.89.88A.88.88,0,0,0,80.51,54.94Z"/><path d="M76,54.92a.9.9,0,1,0,.9.9A.9.9,0,0,0,76,54.92Z"/><path d="M71.51,54.92a.9.9,0,1,0,.9.9A.9.9,0,0,0,71.51,54.92Z"/><path d="M67,54.91a.91.91,0,1,0,.91.91A.91.91,0,0,0,67,54.91Z"/><path d="M62.51,54.9a.93.93,0,1,0,.92.92A.92.92,0,0,0,62.51,54.9Z"/><path d="M58,54.9a.93.93,0,1,0,.92.92A.92.92,0,0,0,58,54.9Z"/><path d="M53.51,54.89a.94.94,0,1,0,.94.93A.93.93,0,0,0,53.51,54.89Z"/><path d="M49,54.89a.94.94,0,1,0,.94.93A.93.93,0,0,0,49,54.89Z"/><path d="M44.51,54.87a1,1,0,1,0,1,1A1,1,0,0,0,44.51,54.87Z"/><path d="M40,54.87a1,1,0,1,0,1,1A1,1,0,0,0,40,54.87Z"/><path d="M35.51,54.86a1,1,0,1,0,1,1A1,1,0,0,0,35.51,54.86Z"/><path d="M31,54.85a1,1,0,1,0,1,1A1,1,0,0,0,31,54.85Z"/><path d="M26.51,54.85a1,1,0,1,0,1,1A1,1,0,0,0,26.51,54.85Z"/><path d="M22,54.84a1,1,0,1,0,1,1A1,1,0,0,0,22,54.84Z"/><path d="M17.51,54.84a1,1,0,1,0,1,1A1,1,0,0,0,17.51,54.84Z"/><path d="M13,54.82a1,1,0,1,0,1,1A1,1,0,0,0,13,54.82Z"/><path d="M8.51,54.82a1,1,0,1,0,1,1A1,1,0,0,0,8.51,54.82Z"/><path d="M4,54.81a1,1,0,1,0,1,1A1,1,0,0,0,4,54.81Z"/><path d="M141.26,50.45a.88.88,0,1,0,.87.87A.87.87,0,0,0,141.26,50.45Z"/><path d="M136.76,50.45a.88.88,0,1,0,.87.87A.87.87,0,0,0,136.76,50.45Z"/><path d="M132.26,50.45a.88.88,0,1,0,.87.87A.87.87,0,0,0,132.26,50.45Z"/><path d="M127.76,50.45a.88.88,0,1,0,.87.87A.87.87,0,0,0,127.76,50.45Z"/><path d="M123.26,50.44a.89.89,0,1,0,.89.88A.88.88,0,0,0,123.26,50.44Z"/><path d="M118.76,50.42a.9.9,0,1,0,.9.9A.9.9,0,0,0,118.76,50.42Z"/><path d="M114.26,50.42a.9.9,0,1,0,.9.9A.9.9,0,0,0,114.26,50.42Z"/><path d="M109.76,50.41a.91.91,0,1,0,.91.91A.91.91,0,0,0,109.76,50.41Z"/><path d="M105.26,50.41a.91.91,0,1,0,.91.91A.91.91,0,0,0,105.26,50.41Z"/><path d="M100.76,50.4a.93.93,0,1,0,.92.92A.92.92,0,0,0,100.76,50.4Z"/><path d="M96.26,50.4a.93.93,0,1,0,.92.92A.92.92,0,0,0,96.26,50.4Z"/><path d="M91.76,50.39a.94.94,0,1,0,.94.93A.93.93,0,0,0,91.76,50.39Z"/><path d="M87.26,50.37a1,1,0,1,0,.95,1A1,1,0,0,0,87.26,50.37Z"/><path d="M82.76,50.37a1,1,0,1,0,.95,1A1,1,0,0,0,82.76,50.37Z"/><path d="M78.26,50.36a1,1,0,1,0,1,1A1,1,0,0,0,78.26,50.36Z"/><path d="M73.76,50.36a1,1,0,1,0,1,1A1,1,0,0,0,73.76,50.36Z"/><path d="M69.26,50.35a1,1,0,1,0,1,1A1,1,0,0,0,69.26,50.35Z"/><path d="M64.76,50.35a1,1,0,1,0,1,1A1,1,0,0,0,64.76,50.35Z"/><path d="M60.26,50.34a1,1,0,1,0,1,1A1,1,0,0,0,60.26,50.34Z"/><path d="M55.76,50.32a1,1,0,1,0,1,1A1,1,0,0,0,55.76,50.32Z"/><path d="M51.26,50.32a1,1,0,1,0,1,1A1,1,0,0,0,51.26,50.32Z"/><path d="M46.76,50.31a1,1,0,1,0,1,1A1,1,0,0,0,46.76,50.31Z"/><path d="M42.26,50.31a1,1,0,1,0,1,1A1,1,0,0,0,42.26,50.31Z"/><path d="M37.76,50.3a1,1,0,1,0,1,1A1,1,0,0,0,37.76,50.3Z"/><path d="M33.26,50.3a1,1,0,1,0,1,1A1,1,0,0,0,33.26,50.3Z"/><path d="M28.76,50.29a1,1,0,1,0,1,1A1,1,0,0,0,28.76,50.29Z"/><path d="M24.26,50.29a1,1,0,1,0,1,1A1,1,0,0,0,24.26,50.29Z"/><path d="M19.76,50.29a1,1,0,1,0,1,1A1,1,0,0,0,19.76,50.29Z"/><path d="M15.26,50.27a1,1,0,1,0,1,1A1,1,0,0,0,15.26,50.27Z"/><path d="M10.76,50.27a1,1,0,1,0,1.05,1A1,1,0,0,0,10.76,50.27Z"/><path d="M6.26,50.26a1.06,1.06,0,1,0,1.06,1.06A1.06,1.06,0,0,0,6.26,50.26Z"/><path d="M1.76,50.25a1.07,1.07,0,1,0,1.07,1.07A1.07,1.07,0,0,0,1.76,50.25Z"/><path d="M143.51,45.9a.93.93,0,1,0,.92.92A.92.92,0,0,0,143.51,45.9Z"/><path d="M139,45.9a.93.93,0,1,0,.92.92A.92.92,0,0,0,139,45.9Z"/><path d="M134.51,45.9a.93.93,0,1,0,.92.92A.92.92,0,0,0,134.51,45.9Z"/><path d="M130,45.89a.94.94,0,1,0,.94.93A.93.93,0,0,0,130,45.89Z"/><path d="M125.51,45.89a.94.94,0,1,0,.94.93A.93.93,0,0,0,125.51,45.89Z"/><path d="M121,45.87a1,1,0,1,0,.95,1A1,1,0,0,0,121,45.87Z"/><path d="M116.51,45.87a1,1,0,1,0,.95,1A1,1,0,0,0,116.51,45.87Z"/><path d="M112,45.86a1,1,0,1,0,1,1A1,1,0,0,0,112,45.86Z"/><path d="M107.51,45.85a1,1,0,1,0,1,1A1,1,0,0,0,107.51,45.85Z"/><path d="M103,45.85a1,1,0,1,0,1,1A1,1,0,0,0,103,45.85Z"/><path d="M98.51,45.84a1,1,0,1,0,1,1A1,1,0,0,0,98.51,45.84Z"/><path d="M94,45.84a1,1,0,1,0,1,1A1,1,0,0,0,94,45.84Z"/><path d="M89.51,45.82a1,1,0,1,0,1,1A1,1,0,0,0,89.51,45.82Z"/><path d="M85,45.81a1,1,0,1,0,1,1A1,1,0,0,0,85,45.81Z"/><path d="M80.51,45.81a1,1,0,1,0,1,1A1,1,0,0,0,80.51,45.81Z"/><path d="M76,45.8a1,1,0,1,0,1,1A1,1,0,0,0,76,45.8Z"/><path d="M71.51,45.8a1,1,0,1,0,1,1A1,1,0,0,0,71.51,45.8Z"/><path d="M67,45.79a1,1,0,1,0,1,1A1,1,0,0,0,67,45.79Z"/><path d="M62.51,45.79a1,1,0,1,0,1,1A1,1,0,0,0,62.51,45.79Z"/><path d="M58,45.79a1,1,0,1,0,1,1A1,1,0,0,0,58,45.79Z"/><path d="M53.51,45.77a1,1,0,1,0,1.05,1A1,1,0,0,0,53.51,45.77Z"/><path d="M49,45.77a1,1,0,1,0,1.05,1A1,1,0,0,0,49,45.77Z"/><path d="M44.51,45.76a1.06,1.06,0,1,0,1.06,1.06A1.06,1.06,0,0,0,44.51,45.76Z"/><path d="M40,45.76a1.06,1.06,0,1,0,1.06,1.06A1.06,1.06,0,0,0,40,45.76Z"/><path d="M35.51,45.75a1.07,1.07,0,1,0,1.07,1.07A1.07,1.07,0,0,0,35.51,45.75Z"/><path d="M31,45.75a1.07,1.07,0,1,0,1.07,1.07A1.07,1.07,0,0,0,31,45.75Z"/><path d="M26.51,45.74a1.09,1.09,0,1,0,1.08,1.08A1.08,1.08,0,0,0,26.51,45.74Z"/><path d="M22,45.72a1.1,1.1,0,1,0,1.1,1.1A1.1,1.1,0,0,0,22,45.72Z"/><path d="M17.51,45.72a1.1,1.1,0,1,0,1.1,1.1A1.1,1.1,0,0,0,17.51,45.72Z"/><path d="M13,45.71a1.11,1.11,0,1,0,1.11,1.11A1.11,1.11,0,0,0,13,45.71Z"/><path d="M8.51,45.71a1.11,1.11,0,1,0,1.11,1.11A1.11,1.11,0,0,0,8.51,45.71Z"/><path d="M4,45.7a1.12,1.12,0,1,0,1.12,1.12A1.12,1.12,0,0,0,4,45.7Z"/><path d="M141.26,41.34a1,1,0,1,0,1,1A1,1,0,0,0,141.26,41.34Z"/><path d="M136.76,41.34a1,1,0,1,0,1,1A1,1,0,0,0,136.76,41.34Z"/><path d="M132.26,41.32a1,1,0,1,0,1,1A1,1,0,0,0,132.26,41.32Z"/><path d="M127.76,41.32a1,1,0,1,0,1,1A1,1,0,0,0,127.76,41.32Z"/><path d="M123.26,41.31a1,1,0,1,0,1,1A1,1,0,0,0,123.26,41.31Z"/><path d="M118.76,41.31a1,1,0,1,0,1,1A1,1,0,0,0,118.76,41.31Z"/><path d="M114.26,41.3a1,1,0,1,0,1,1A1,1,0,0,0,114.26,41.3Z"/><path d="M109.76,41.29a1,1,0,1,0,1,1A1,1,0,0,0,109.76,41.29Z"/><path d="M105.26,41.29a1,1,0,1,0,1,1A1,1,0,0,0,105.26,41.29Z"/><path d="M100.76,41.29a1,1,0,1,0,1,1A1,1,0,0,0,100.76,41.29Z"/><path d="M96.26,41.29a1,1,0,1,0,1,1A1,1,0,0,0,96.26,41.29Z"/><path d="M91.76,41.27a1,1,0,1,0,1,1A1,1,0,0,0,91.76,41.27Z"/><path d="M87.26,41.27a1,1,0,1,0,1,1A1,1,0,0,0,87.26,41.27Z"/><path d="M82.76,41.26a1.06,1.06,0,1,0,1.06,1.06A1.06,1.06,0,0,0,82.76,41.26Z"/><path d="M78.26,41.25a1.07,1.07,0,1,0,1.07,1.07A1.07,1.07,0,0,0,78.26,41.25Z"/><path d="M73.76,41.25a1.07,1.07,0,1,0,1.07,1.07A1.07,1.07,0,0,0,73.76,41.25Z"/><path d="M69.26,41.24a1.09,1.09,0,1,0,1.08,1.08A1.08,1.08,0,0,0,69.26,41.24Z"/><path d="M64.76,41.24a1.09,1.09,0,1,0,1.08,1.08A1.08,1.08,0,0,0,64.76,41.24Z"/><path d="M60.26,41.22a1.1,1.1,0,1,0,1.1,1.1A1.1,1.1,0,0,0,60.26,41.22Z"/><path d="M55.76,41.21a1.11,1.11,0,1,0,1.11,1.11A1.11,1.11,0,0,0,55.76,41.21Z"/><path d="M51.26,41.21a1.11,1.11,0,1,0,1.11,1.11A1.11,1.11,0,0,0,51.26,41.21Z"/><path d="M46.76,41.2a1.12,1.12,0,1,0,1.12,1.12A1.12,1.12,0,0,0,46.76,41.2Z"/><path d="M42.26,41.2a1.12,1.12,0,1,0,1.12,1.12A1.12,1.12,0,0,0,42.26,41.2Z"/><path d="M37.76,41.19a1.14,1.14,0,1,0,1.13,1.13A1.13,1.13,0,0,0,37.76,41.19Z"/><path d="M33.26,41.19a1.14,1.14,0,1,0,1.13,1.13A1.13,1.13,0,0,0,33.26,41.19Z"/><path d="M28.76,41.16a1.16,1.16,0,1,0,1.16,1.16A1.16,1.16,0,0,0,28.76,41.16Z"/><path d="M24.26,41.15a1.17,1.17,0,1,0,1.17,1.17A1.17,1.17,0,0,0,24.26,41.15Z"/><path d="M19.76,41.15a1.17,1.17,0,1,0,1.17,1.17A1.17,1.17,0,0,0,19.76,41.15Z"/><path d="M15.26,41.14a1.19,1.19,0,1,0,1.18,1.18A1.18,1.18,0,0,0,15.26,41.14Z"/><path d="M10.76,41.14a1.19,1.19,0,1,0,1.18,1.18A1.18,1.18,0,0,0,10.76,41.14Z"/><path d="M6.26,41.12a1.2,1.2,0,1,0,1.2,1.2A1.2,1.2,0,0,0,6.26,41.12Z"/><path d="M1.76,41.12A1.2,1.2,0,1,0,3,42.32,1.2,1.2,0,0,0,1.76,41.12Z"/><path d="M143.51,36.79a1,1,0,1,0,1,1A1,1,0,0,0,143.51,36.79Z"/><path d="M139,36.79a1,1,0,1,0,1,1A1,1,0,0,0,139,36.79Z"/><path d="M134.51,36.79a1,1,0,1,0,1,1A1,1,0,0,0,134.51,36.79Z"/><path d="M130,36.77a1,1,0,1,0,1.05,1A1,1,0,0,0,130,36.77Z"/><path d="M125.51,36.77a1,1,0,1,0,1,1A1,1,0,0,0,125.51,36.77Z"/><path d="M121,36.76a1.06,1.06,0,1,0,1.06,1.06A1.06,1.06,0,0,0,121,36.76Z"/><path d="M116.51,36.76a1.06,1.06,0,1,0,1.06,1.06A1.06,1.06,0,0,0,116.51,36.76Z"/><path d="M112,36.75a1.07,1.07,0,1,0,1.07,1.07A1.07,1.07,0,0,0,112,36.75Z"/><path d="M107.51,36.74a1.09,1.09,0,1,0,1.08,1.08A1.08,1.08,0,0,0,107.51,36.74Z"/><path d="M103,36.74a1.09,1.09,0,1,0,1.08,1.08A1.08,1.08,0,0,0,103,36.74Z"/><path d="M98.51,36.72a1.1,1.1,0,1,0,1.1,1.1A1.1,1.1,0,0,0,98.51,36.72Z"/><path d="M94,36.72a1.1,1.1,0,1,0,1.1,1.1A1.1,1.1,0,0,0,94,36.72Z"/><path d="M89.51,36.71a1.11,1.11,0,1,0,1.11,1.11A1.11,1.11,0,0,0,89.51,36.71Z"/><path d="M85,36.71a1.11,1.11,0,1,0,1.11,1.11A1.11,1.11,0,0,0,85,36.71Z"/><path d="M80.51,36.7a1.12,1.12,0,1,0,1.12,1.12A1.12,1.12,0,0,0,80.51,36.7Z"/><path d="M76,36.69a1.14,1.14,0,1,0,1.13,1.13A1.13,1.13,0,0,0,76,36.69Z"/><path d="M71.51,36.69a1.14,1.14,0,1,0,1.13,1.13A1.13,1.13,0,0,0,71.51,36.69Z"/><path d="M67,36.66a1.16,1.16,0,1,0,1.16,1.16A1.16,1.16,0,0,0,67,36.66Z"/><path d="M62.51,36.66a1.16,1.16,0,1,0,1.16,1.16A1.16,1.16,0,0,0,62.51,36.66Z"/><path d="M58,36.65a1.17,1.17,0,1,0,1.17,1.17A1.17,1.17,0,0,0,58,36.65Z"/><path d="M53.51,36.65a1.17,1.17,0,1,0,1.17,1.17A1.17,1.17,0,0,0,53.51,36.65Z"/><path d="M49,36.64a1.19,1.19,0,1,0,1.18,1.18A1.18,1.18,0,0,0,49,36.64Z"/><path d="M44.51,36.62a1.2,1.2,0,1,0,1.2,1.2A1.2,1.2,0,0,0,44.51,36.62Z"/><path d="M40,36.62a1.2,1.2,0,1,0,1.2,1.2A1.2,1.2,0,0,0,40,36.62Z"/><path d="M35.51,36.61a1.21,1.21,0,1,0,1.21,1.21A1.21,1.21,0,0,0,35.51,36.61Z"/><path d="M31,36.61a1.21,1.21,0,1,0,1.21,1.21A1.21,1.21,0,0,0,31,36.61Z"/><path d="M26.51,36.6a1.22,1.22,0,1,0,1.22,1.22A1.22,1.22,0,0,0,26.51,36.6Z"/><path d="M22,36.59a1.24,1.24,0,1,0,1.23,1.23A1.24,1.24,0,0,0,22,36.59Z"/><path d="M17.51,36.59a1.24,1.24,0,1,0,1.23,1.23A1.24,1.24,0,0,0,17.51,36.59Z"/><path d="M13,36.57a1.25,1.25,0,1,0,1.25,1.25A1.25,1.25,0,0,0,13,36.57Z"/><path d="M8.51,36.57a1.25,1.25,0,1,0,1.25,1.25A1.25,1.25,0,0,0,8.51,36.57Z"/><path d="M4,36.56a1.26,1.26,0,1,0,1.26,1.26A1.26,1.26,0,0,0,4,36.56Z"/><path d="M141.26,32.24a1.09,1.09,0,1,0,1.08,1.08A1.08,1.08,0,0,0,141.26,32.24Z"/><path d="M136.76,32.22a1.1,1.1,0,1,0,1.1,1.1A1.1,1.1,0,0,0,136.76,32.22Z"/><path d="M132.26,32.21a1.11,1.11,0,1,0,1.11,1.11A1.11,1.11,0,0,0,132.26,32.21Z"/><path d="M127.76,32.21a1.11,1.11,0,1,0,1.11,1.11A1.11,1.11,0,0,0,127.76,32.21Z"/><path d="M123.26,32.2a1.12,1.12,0,1,0,1.12,1.12A1.12,1.12,0,0,0,123.26,32.2Z"/><path d="M118.76,32.2a1.12,1.12,0,1,0,1.12,1.12A1.12,1.12,0,0,0,118.76,32.2Z"/><path d="M114.26,32.19a1.14,1.14,0,1,0,1.13,1.13A1.13,1.13,0,0,0,114.26,32.19Z"/><path d="M109.76,32.19a1.14,1.14,0,1,0,1.13,1.13A1.13,1.13,0,0,0,109.76,32.19Z"/><path d="M105.26,32.16a1.16,1.16,0,1,0,1.16,1.16A1.16,1.16,0,0,0,105.26,32.16Z"/><path d="M100.76,32.15a1.17,1.17,0,1,0,1.17,1.17A1.17,1.17,0,0,0,100.76,32.15Z"/><path d="M96.26,32.15a1.17,1.17,0,1,0,1.17,1.17A1.17,1.17,0,0,0,96.26,32.15Z"/><path d="M91.76,32.14a1.19,1.19,0,1,0,1.18,1.18A1.18,1.18,0,0,0,91.76,32.14Z"/><path d="M87.26,32.14a1.19,1.19,0,1,0,1.18,1.18A1.18,1.18,0,0,0,87.26,32.14Z"/><path d="M82.76,32.12a1.2,1.2,0,1,0,1.2,1.2A1.2,1.2,0,0,0,82.76,32.12Z"/><path d="M78.26,32.11a1.21,1.21,0,1,0,1.21,1.21A1.21,1.21,0,0,0,78.26,32.11Z"/><path d="M73.76,32.11A1.21,1.21,0,1,0,75,33.32,1.21,1.21,0,0,0,73.76,32.11Z"/><path d="M69.26,32.1a1.22,1.22,0,1,0,1.22,1.22A1.22,1.22,0,0,0,69.26,32.1Z"/><path d="M64.76,32.1A1.22,1.22,0,1,0,66,33.32,1.22,1.22,0,0,0,64.76,32.1Z"/><path d="M60.26,32.09a1.24,1.24,0,1,0,1.23,1.23A1.24,1.24,0,0,0,60.26,32.09Z"/><path d="M55.76,32.09A1.24,1.24,0,1,0,57,33.32,1.24,1.24,0,0,0,55.76,32.09Z"/><path d="M51.26,32.07a1.25,1.25,0,1,0,1.25,1.25A1.25,1.25,0,0,0,51.26,32.07Z"/><path d="M46.76,32.06A1.26,1.26,0,1,0,48,33.32,1.26,1.26,0,0,0,46.76,32.06Z"/><path d="M42.26,32.06a1.26,1.26,0,1,0,1.26,1.26A1.26,1.26,0,0,0,42.26,32.06Z"/><path d="M37.76,32.05A1.27,1.27,0,1,0,39,33.32,1.27,1.27,0,0,0,37.76,32.05Z"/><path d="M33.26,32.05a1.27,1.27,0,1,0,1.27,1.27A1.27,1.27,0,0,0,33.26,32.05Z"/><path d="M28.76,32A1.29,1.29,0,1,0,30,33.32,1.28,1.28,0,0,0,28.76,32Z"/><path d="M24.26,32a1.29,1.29,0,1,0,1.28,1.28A1.28,1.28,0,0,0,24.26,32Z"/><path d="M19.76,32a1.3,1.3,0,1,0,1.3,1.3A1.3,1.3,0,0,0,19.76,32Z"/><path d="M15.26,32a1.31,1.31,0,1,0,1.31,1.31A1.31,1.31,0,0,0,15.26,32Z"/><path d="M10.76,32a1.31,1.31,0,1,0,1.31,1.31A1.31,1.31,0,0,0,10.76,32Z"/><path d="M6.26,32a1.32,1.32,0,1,0,1.32,1.32A1.32,1.32,0,0,0,6.26,32Z"/><path d="M1.76,32a1.32,1.32,0,1,0,1.32,1.32A1.32,1.32,0,0,0,1.76,32Z"/><path d="M143.51,27.66a1.16,1.16,0,1,0,1.16,1.16A1.16,1.16,0,0,0,143.51,27.66Z"/><path d="M139,27.66a1.16,1.16,0,1,0,1.16,1.16A1.16,1.16,0,0,0,139,27.66Z"/><path d="M134.51,27.65a1.17,1.17,0,1,0,1.17,1.17A1.17,1.17,0,0,0,134.51,27.65Z"/><path d="M130,27.64a1.19,1.19,0,1,0,1.18,1.18A1.18,1.18,0,0,0,130,27.64Z"/><path d="M125.51,27.64a1.19,1.19,0,1,0,1.18,1.18A1.18,1.18,0,0,0,125.51,27.64Z"/><path d="M121,27.62a1.2,1.2,0,1,0,1.2,1.2A1.2,1.2,0,0,0,121,27.62Z"/><path d="M116.51,27.62a1.2,1.2,0,1,0,1.2,1.2A1.2,1.2,0,0,0,116.51,27.62Z"/><path d="M112,27.61a1.21,1.21,0,1,0,1.21,1.21A1.21,1.21,0,0,0,112,27.61Z"/><path d="M107.51,27.61a1.21,1.21,0,1,0,1.21,1.21A1.21,1.21,0,0,0,107.51,27.61Z"/><path d="M103,27.6a1.22,1.22,0,1,0,1.22,1.22A1.22,1.22,0,0,0,103,27.6Z"/><path d="M98.51,27.59a1.24,1.24,0,1,0,1.23,1.23A1.24,1.24,0,0,0,98.51,27.59Z"/><path d="M94,27.59a1.24,1.24,0,1,0,1.23,1.23A1.24,1.24,0,0,0,94,27.59Z"/><path d="M89.51,27.57a1.25,1.25,0,1,0,1.25,1.25A1.25,1.25,0,0,0,89.51,27.57Z"/><path d="M85,27.57a1.25,1.25,0,1,0,1.25,1.25A1.25,1.25,0,0,0,85,27.57Z"/><path d="M80.51,27.56a1.26,1.26,0,1,0,1.26,1.26A1.26,1.26,0,0,0,80.51,27.56Z"/><path d="M76,27.56a1.26,1.26,0,1,0,1.26,1.26A1.26,1.26,0,0,0,76,27.56Z"/><path d="M71.51,27.55a1.27,1.27,0,1,0,1.27,1.27A1.27,1.27,0,0,0,71.51,27.55Z"/><path d="M67,27.54a1.29,1.29,0,1,0,1.28,1.28A1.28,1.28,0,0,0,67,27.54Z"/><path d="M62.51,27.54a1.29,1.29,0,1,0,1.28,1.28A1.28,1.28,0,0,0,62.51,27.54Z"/><path d="M58,27.52a1.3,1.3,0,1,0,1.3,1.3A1.3,1.3,0,0,0,58,27.52Z"/><path d="M53.51,27.52a1.3,1.3,0,1,0,1.3,1.3A1.3,1.3,0,0,0,53.51,27.52Z"/><path d="M49,27.51a1.31,1.31,0,1,0,1.31,1.31A1.31,1.31,0,0,0,49,27.51Z"/><path d="M44.51,27.5a1.32,1.32,0,1,0,1.32,1.32A1.32,1.32,0,0,0,44.51,27.5Z"/><path d="M40,27.5a1.32,1.32,0,1,0,1.32,1.32A1.32,1.32,0,0,0,40,27.5Z"/><path d="M35.51,27.49a1.34,1.34,0,1,0,1.33,1.33A1.33,1.33,0,0,0,35.51,27.49Z"/><path d="M31,27.49a1.34,1.34,0,1,0,1.33,1.33A1.33,1.33,0,0,0,31,27.49Z"/><path d="M26.51,27.47a1.35,1.35,0,1,0,1.35,1.35A1.35,1.35,0,0,0,26.51,27.47Z"/><path d="M22,27.47a1.35,1.35,0,1,0,1.35,1.35A1.35,1.35,0,0,0,22,27.47Z"/><path d="M17.51,27.45a1.37,1.37,0,1,0,1.37,1.37A1.37,1.37,0,0,0,17.51,27.45Z"/><path d="M13,27.44a1.39,1.39,0,1,0,1.38,1.38A1.38,1.38,0,0,0,13,27.44Z"/><path d="M8.51,27.44a1.39,1.39,0,1,0,1.38,1.38A1.38,1.38,0,0,0,8.51,27.44Z"/><path d="M4,27.42a1.4,1.4,0,1,0,1.4,1.4A1.4,1.4,0,0,0,4,27.42Z"/><path d="M141.26,23.1a1.22,1.22,0,1,0,1.22,1.22A1.22,1.22,0,0,0,141.26,23.1Z"/><path d="M136.76,23.09A1.24,1.24,0,1,0,138,24.32,1.24,1.24,0,0,0,136.76,23.09Z"/><path d="M132.26,23.07a1.25,1.25,0,1,0,1.25,1.25A1.25,1.25,0,0,0,132.26,23.07Z"/><path d="M127.76,23.07A1.25,1.25,0,1,0,129,24.32,1.25,1.25,0,0,0,127.76,23.07Z"/><path d="M123.26,23.06a1.26,1.26,0,1,0,1.26,1.26A1.26,1.26,0,0,0,123.26,23.06Z"/><path d="M118.76,23.06A1.26,1.26,0,1,0,120,24.32,1.26,1.26,0,0,0,118.76,23.06Z"/><path d="M114.26,23.05a1.27,1.27,0,1,0,1.27,1.27A1.27,1.27,0,0,0,114.26,23.05Z"/><path d="M109.76,23.05A1.27,1.27,0,1,0,111,24.32,1.27,1.27,0,0,0,109.76,23.05Z"/><path d="M105.26,23a1.29,1.29,0,1,0,1.28,1.28A1.28,1.28,0,0,0,105.26,23Z"/><path d="M100.76,23a1.3,1.3,0,1,0,1.3,1.3A1.3,1.3,0,0,0,100.76,23Z"/><path d="M96.26,23a1.3,1.3,0,1,0,1.3,1.3A1.3,1.3,0,0,0,96.26,23Z"/><path d="M91.76,23a1.31,1.31,0,1,0,1.31,1.31A1.31,1.31,0,0,0,91.76,23Z"/><path d="M87.26,23a1.31,1.31,0,1,0,1.31,1.31A1.31,1.31,0,0,0,87.26,23Z"/><path d="M82.76,23a1.32,1.32,0,1,0,1.32,1.32A1.32,1.32,0,0,0,82.76,23Z"/><path d="M78.26,23a1.32,1.32,0,1,0,1.32,1.32A1.32,1.32,0,0,0,78.26,23Z"/><path d="M73.76,23a1.34,1.34,0,1,0,1.33,1.33A1.33,1.33,0,0,0,73.76,23Z"/><path d="M69.26,23a1.35,1.35,0,1,0,1.35,1.35A1.35,1.35,0,0,0,69.26,23Z"/><path d="M64.76,23a1.35,1.35,0,1,0,1.35,1.35A1.35,1.35,0,0,0,64.76,23Z"/><path d="M60.26,23a1.37,1.37,0,1,0,1.37,1.37A1.37,1.37,0,0,0,60.26,23Z"/><path d="M55.76,23a1.37,1.37,0,1,0,1.37,1.37A1.37,1.37,0,0,0,55.76,23Z"/><path d="M51.26,22.94a1.39,1.39,0,1,0,1.38,1.38A1.38,1.38,0,0,0,51.26,22.94Z"/><path d="M46.76,22.94a1.39,1.39,0,1,0,1.38,1.38A1.38,1.38,0,0,0,46.76,22.94Z"/><path d="M42.26,22.92a1.4,1.4,0,1,0,1.4,1.4A1.4,1.4,0,0,0,42.26,22.92Z"/><path d="M37.76,22.91a1.41,1.41,0,1,0,1.41,1.41A1.41,1.41,0,0,0,37.76,22.91Z"/><path d="M33.26,22.91a1.41,1.41,0,1,0,1.41,1.41A1.41,1.41,0,0,0,33.26,22.91Z"/><path d="M28.76,22.9a1.42,1.42,0,1,0,1.42,1.42A1.42,1.42,0,0,0,28.76,22.9Z"/><path d="M24.26,22.9a1.42,1.42,0,1,0,1.42,1.42A1.42,1.42,0,0,0,24.26,22.9Z"/><path d="M19.76,22.89a1.44,1.44,0,1,0,1.43,1.43A1.44,1.44,0,0,0,19.76,22.89Z"/><path d="M15.26,22.87a1.45,1.45,0,1,0,1.45,1.45A1.45,1.45,0,0,0,15.26,22.87Z"/><path d="M10.76,22.87a1.45,1.45,0,1,0,1.45,1.45A1.45,1.45,0,0,0,10.76,22.87Z"/><path d="M6.26,22.86a1.46,1.46,0,1,0,1.46,1.46A1.46,1.46,0,0,0,6.26,22.86Z"/><path d="M1.76,22.86a1.46,1.46,0,1,0,1.46,1.46A1.46,1.46,0,0,0,1.76,22.86Z"/><path d="M143.51,18.54a1.29,1.29,0,1,0,1.28,1.28A1.28,1.28,0,0,0,143.51,18.54Z"/><path d="M139,18.54a1.29,1.29,0,1,0,1.28,1.28A1.28,1.28,0,0,0,139,18.54Z"/><path d="M134.51,18.52a1.3,1.3,0,1,0,1.3,1.3A1.3,1.3,0,0,0,134.51,18.52Z"/><path d="M130,18.52a1.3,1.3,0,1,0,1.3,1.3A1.3,1.3,0,0,0,130,18.52Z"/><path d="M125.51,18.51a1.31,1.31,0,1,0,1.31,1.31A1.31,1.31,0,0,0,125.51,18.51Z"/><path d="M121,18.5a1.32,1.32,0,1,0,1.32,1.32A1.32,1.32,0,0,0,121,18.5Z"/><path d="M116.51,18.5a1.32,1.32,0,1,0,1.32,1.32A1.32,1.32,0,0,0,116.51,18.5Z"/><path d="M112,18.49a1.34,1.34,0,1,0,1.33,1.33A1.33,1.33,0,0,0,112,18.49Z"/><path d="M107.51,18.49a1.34,1.34,0,1,0,1.33,1.33A1.33,1.33,0,0,0,107.51,18.49Z"/><path d="M103,18.47a1.35,1.35,0,1,0,1.35,1.35A1.35,1.35,0,0,0,103,18.47Z"/><path d="M98.51,18.47a1.35,1.35,0,1,0,1.35,1.35A1.35,1.35,0,0,0,98.51,18.47Z"/><path d="M94,18.45a1.37,1.37,0,1,0,1.37,1.37A1.37,1.37,0,0,0,94,18.45Z"/><path d="M89.51,18.44a1.39,1.39,0,1,0,1.38,1.38A1.38,1.38,0,0,0,89.51,18.44Z"/><path d="M85,18.44a1.39,1.39,0,1,0,1.38,1.38A1.38,1.38,0,0,0,85,18.44Z"/><path d="M80.51,18.42a1.4,1.4,0,1,0,1.4,1.4A1.4,1.4,0,0,0,80.51,18.42Z"/><path d="M76,18.42a1.4,1.4,0,1,0,1.4,1.4A1.4,1.4,0,0,0,76,18.42Z"/><path d="M71.51,18.41a1.41,1.41,0,1,0,1.41,1.41A1.41,1.41,0,0,0,71.51,18.41Z"/><path d="M67,18.4a1.42,1.42,0,1,0,1.42,1.42A1.42,1.42,0,0,0,67,18.4Z"/><path d="M62.51,18.4a1.42,1.42,0,1,0,1.42,1.42A1.42,1.42,0,0,0,62.51,18.4Z"/><path d="M58,18.39a1.44,1.44,0,1,0,1.43,1.43A1.44,1.44,0,0,0,58,18.39Z"/><path d="M53.51,18.39a1.44,1.44,0,1,0,1.43,1.43A1.44,1.44,0,0,0,53.51,18.39Z"/><path d="M49,18.37a1.45,1.45,0,1,0,1.45,1.45A1.45,1.45,0,0,0,49,18.37Z"/><path d="M44.51,18.37A1.45,1.45,0,1,0,46,19.82,1.45,1.45,0,0,0,44.51,18.37Z"/><path d="M40,18.36a1.46,1.46,0,1,0,1.46,1.46A1.46,1.46,0,0,0,40,18.36Z"/><path d="M35.51,18.34A1.49,1.49,0,1,0,37,19.82,1.49,1.49,0,0,0,35.51,18.34Z"/><path d="M31,18.34a1.49,1.49,0,1,0,1.48,1.48A1.49,1.49,0,0,0,31,18.34Z"/><path d="M26.51,18.32a1.5,1.5,0,1,0,1.5,1.5A1.5,1.5,0,0,0,26.51,18.32Z"/><path d="M22,18.32a1.5,1.5,0,1,0,1.5,1.5A1.5,1.5,0,0,0,22,18.32Z"/><path d="M17.51,18.31A1.51,1.51,0,1,0,19,19.82,1.51,1.51,0,0,0,17.51,18.31Z"/><path d="M13,18.31a1.51,1.51,0,1,0,1.51,1.51A1.51,1.51,0,0,0,13,18.31Z"/><path d="M8.51,18.3A1.52,1.52,0,1,0,10,19.82,1.52,1.52,0,0,0,8.51,18.3Z"/><path d="M4,18.29a1.54,1.54,0,1,0,1.53,1.53A1.53,1.53,0,0,0,4,18.29Z"/><path d="M141.26,14a1.35,1.35,0,1,0,1.35,1.35A1.35,1.35,0,0,0,141.26,14Z"/><path d="M136.76,14a1.37,1.37,0,1,0,1.37,1.37A1.37,1.37,0,0,0,136.76,14Z"/><path d="M132.26,14a1.37,1.37,0,1,0,1.37,1.37A1.37,1.37,0,0,0,132.26,14Z"/><path d="M127.76,13.94a1.39,1.39,0,1,0,1.38,1.38A1.38,1.38,0,0,0,127.76,13.94Z"/><path d="M123.26,13.92a1.4,1.4,0,1,0,1.4,1.4A1.4,1.4,0,0,0,123.26,13.92Z"/><path d="M118.76,13.92a1.4,1.4,0,1,0,1.4,1.4A1.4,1.4,0,0,0,118.76,13.92Z"/><path d="M114.26,13.91a1.41,1.41,0,1,0,1.41,1.41A1.41,1.41,0,0,0,114.26,13.91Z"/><path d="M109.76,13.91a1.41,1.41,0,1,0,1.41,1.41A1.41,1.41,0,0,0,109.76,13.91Z"/><path d="M105.26,13.9a1.42,1.42,0,1,0,1.42,1.42A1.42,1.42,0,0,0,105.26,13.9Z"/><path d="M100.76,13.9a1.42,1.42,0,1,0,1.42,1.42A1.42,1.42,0,0,0,100.76,13.9Z"/><path d="M96.26,13.89a1.44,1.44,0,1,0,1.43,1.43A1.44,1.44,0,0,0,96.26,13.89Z"/><path d="M91.76,13.87a1.45,1.45,0,1,0,1.45,1.45A1.45,1.45,0,0,0,91.76,13.87Z"/><path d="M87.26,13.87a1.45,1.45,0,1,0,1.45,1.45A1.45,1.45,0,0,0,87.26,13.87Z"/><path d="M82.76,13.86a1.46,1.46,0,1,0,1.46,1.46A1.46,1.46,0,0,0,82.76,13.86Z"/><path d="M78.26,13.86a1.46,1.46,0,1,0,1.46,1.46A1.46,1.46,0,0,0,78.26,13.86Z"/><path d="M73.76,13.84a1.49,1.49,0,1,0,1.48,1.48A1.49,1.49,0,0,0,73.76,13.84Z"/><path d="M69.26,13.84a1.49,1.49,0,1,0,1.48,1.48A1.49,1.49,0,0,0,69.26,13.84Z"/><path d="M64.76,13.82a1.5,1.5,0,1,0,1.5,1.5A1.5,1.5,0,0,0,64.76,13.82Z"/><path d="M60.26,13.81a1.51,1.51,0,1,0,1.51,1.51A1.51,1.51,0,0,0,60.26,13.81Z"/><path d="M55.76,13.81a1.51,1.51,0,1,0,1.51,1.51A1.51,1.51,0,0,0,55.76,13.81Z"/><path d="M51.26,13.8a1.52,1.52,0,1,0,1.52,1.52A1.52,1.52,0,0,0,51.26,13.8Z"/><path d="M46.76,13.8a1.52,1.52,0,1,0,1.52,1.52A1.52,1.52,0,0,0,46.76,13.8Z"/><path d="M42.26,13.79a1.54,1.54,0,1,0,1.53,1.53A1.53,1.53,0,0,0,42.26,13.79Z"/><path d="M37.76,13.77a1.55,1.55,0,1,0,1.55,1.55A1.55,1.55,0,0,0,37.76,13.77Z"/><path d="M33.26,13.77a1.55,1.55,0,1,0,1.55,1.55A1.55,1.55,0,0,0,33.26,13.77Z"/><path d="M28.76,13.75a1.57,1.57,0,1,0,1.57,1.57A1.57,1.57,0,0,0,28.76,13.75Z"/><path d="M24.26,13.75a1.57,1.57,0,1,0,1.57,1.57A1.57,1.57,0,0,0,24.26,13.75Z"/><path d="M19.76,13.74a1.59,1.59,0,1,0,1.58,1.58A1.59,1.59,0,0,0,19.76,13.74Z"/><path d="M15.26,13.74a1.59,1.59,0,1,0,1.58,1.58A1.59,1.59,0,0,0,15.26,13.74Z"/><path d="M10.76,13.72a1.6,1.6,0,1,0,1.6,1.6A1.6,1.6,0,0,0,10.76,13.72Z"/><path d="M6.26,13.71a1.61,1.61,0,1,0,1.61,1.61A1.61,1.61,0,0,0,6.26,13.71Z"/><path d="M1.76,13.71a1.61,1.61,0,1,0,1.61,1.61A1.61,1.61,0,0,0,1.76,13.71Z"/><path d="M143.51,9.4a1.42,1.42,0,1,0,1.42,1.42A1.42,1.42,0,0,0,143.51,9.4Z"/><path d="M139,9.4a1.42,1.42,0,1,0,1.42,1.42A1.42,1.42,0,0,0,139,9.4Z"/><path d="M134.51,9.39a1.44,1.44,0,1,0,1.43,1.43A1.44,1.44,0,0,0,134.51,9.39Z"/><path d="M130,9.39a1.44,1.44,0,1,0,1.43,1.43A1.44,1.44,0,0,0,130,9.39Z"/><path d="M125.51,9.37A1.45,1.45,0,1,0,127,10.82,1.45,1.45,0,0,0,125.51,9.37Z"/><path d="M121,9.36a1.46,1.46,0,1,0,1.46,1.46A1.46,1.46,0,0,0,121,9.36Z"/><path d="M116.51,9.36A1.46,1.46,0,1,0,118,10.82,1.46,1.46,0,0,0,116.51,9.36Z"/><path d="M112,9.34a1.49,1.49,0,1,0,1.48,1.48A1.49,1.49,0,0,0,112,9.34Z"/><path d="M107.51,9.34A1.49,1.49,0,1,0,109,10.82,1.49,1.49,0,0,0,107.51,9.34Z"/><path d="M103,9.32a1.5,1.5,0,1,0,1.5,1.5A1.5,1.5,0,0,0,103,9.32Z"/><path d="M98.51,9.32a1.5,1.5,0,1,0,1.5,1.5A1.5,1.5,0,0,0,98.51,9.32Z"/><path d="M94,9.31a1.51,1.51,0,1,0,1.51,1.51A1.51,1.51,0,0,0,94,9.31Z"/><path d="M89.51,9.3A1.52,1.52,0,1,0,91,10.82,1.52,1.52,0,0,0,89.51,9.3Z"/><path d="M85,9.3a1.52,1.52,0,1,0,1.52,1.52A1.52,1.52,0,0,0,85,9.3Z"/><path d="M80.51,9.29A1.54,1.54,0,1,0,82,10.82,1.53,1.53,0,0,0,80.51,9.29Z"/><path d="M76,9.29a1.54,1.54,0,1,0,1.53,1.53A1.53,1.53,0,0,0,76,9.29Z"/><path d="M71.51,9.27a1.55,1.55,0,1,0,1.55,1.55A1.55,1.55,0,0,0,71.51,9.27Z"/><path d="M67,9.27a1.55,1.55,0,1,0,1.55,1.55A1.55,1.55,0,0,0,67,9.27Z"/><path d="M62.51,9.25a1.57,1.57,0,1,0,1.57,1.57A1.57,1.57,0,0,0,62.51,9.25Z"/><path d="M58,9.24a1.59,1.59,0,1,0,1.58,1.58A1.59,1.59,0,0,0,58,9.24Z"/><path d="M53.51,9.24a1.59,1.59,0,1,0,1.58,1.58A1.59,1.59,0,0,0,53.51,9.24Z"/><path d="M49,9.22a1.6,1.6,0,1,0,1.6,1.6A1.6,1.6,0,0,0,49,9.22Z"/><path d="M44.51,9.22a1.6,1.6,0,1,0,1.6,1.6A1.6,1.6,0,0,0,44.51,9.22Z"/><path d="M40,9.21a1.61,1.61,0,1,0,1.61,1.61A1.61,1.61,0,0,0,40,9.21Z"/><path d="M35.51,9.21a1.61,1.61,0,1,0,1.61,1.61A1.61,1.61,0,0,0,35.51,9.21Z"/><path d="M31,9.2a1.62,1.62,0,1,0,1.62,1.62A1.62,1.62,0,0,0,31,9.2Z"/><path d="M26.51,9.19a1.64,1.64,0,1,0,1.63,1.63A1.63,1.63,0,0,0,26.51,9.19Z"/><path d="M22,9.19a1.64,1.64,0,1,0,1.63,1.63A1.63,1.63,0,0,0,22,9.19Z"/><path d="M17.51,9.16a1.66,1.66,0,1,0,1.66,1.66A1.66,1.66,0,0,0,17.51,9.16Z"/><path d="M13,9.16a1.66,1.66,0,1,0,1.66,1.66A1.66,1.66,0,0,0,13,9.16Z"/><path d="M8.51,9.15a1.67,1.67,0,1,0,1.67,1.67A1.67,1.67,0,0,0,8.51,9.15Z"/><path d="M4,9.14a1.69,1.69,0,1,0,1.68,1.68A1.68,1.68,0,0,0,4,9.14Z"/><path d="M141.26,4.82a1.5,1.5,0,1,0,1.5,1.5A1.5,1.5,0,0,0,141.26,4.82Z"/><path d="M136.76,4.81a1.51,1.51,0,1,0,1.51,1.51A1.51,1.51,0,0,0,136.76,4.81Z"/><path d="M132.26,4.81a1.51,1.51,0,1,0,1.51,1.51A1.51,1.51,0,0,0,132.26,4.81Z"/><path d="M127.76,4.8a1.52,1.52,0,1,0,1.52,1.52A1.52,1.52,0,0,0,127.76,4.8Z"/><path d="M123.26,4.8a1.52,1.52,0,1,0,1.52,1.52A1.52,1.52,0,0,0,123.26,4.8Z"/><path d="M118.76,4.79a1.54,1.54,0,1,0,1.53,1.53A1.53,1.53,0,0,0,118.76,4.79Z"/><path d="M114.26,4.77a1.55,1.55,0,1,0,1.55,1.55A1.55,1.55,0,0,0,114.26,4.77Z"/><path d="M109.76,4.77a1.55,1.55,0,1,0,1.55,1.55A1.55,1.55,0,0,0,109.76,4.77Z"/><path d="M105.26,4.75a1.57,1.57,0,1,0,1.57,1.57A1.57,1.57,0,0,0,105.26,4.75Z"/><path d="M100.76,4.75a1.57,1.57,0,1,0,1.57,1.57A1.57,1.57,0,0,0,100.76,4.75Z"/><path d="M96.26,4.74a1.59,1.59,0,1,0,1.58,1.58A1.59,1.59,0,0,0,96.26,4.74Z"/><path d="M91.76,4.72a1.6,1.6,0,1,0,1.6,1.6A1.6,1.6,0,0,0,91.76,4.72Z"/><path d="M87.26,4.72a1.6,1.6,0,1,0,1.6,1.6A1.6,1.6,0,0,0,87.26,4.72Z"/><path d="M82.76,4.71a1.61,1.61,0,1,0,1.61,1.61A1.61,1.61,0,0,0,82.76,4.71Z"/><path d="M78.26,4.71a1.61,1.61,0,1,0,1.61,1.61A1.61,1.61,0,0,0,78.26,4.71Z"/><path d="M73.76,4.7a1.62,1.62,0,1,0,1.62,1.62A1.62,1.62,0,0,0,73.76,4.7Z"/><path d="M69.26,4.7a1.62,1.62,0,1,0,1.62,1.62A1.62,1.62,0,0,0,69.26,4.7Z"/><path d="M64.76,4.69a1.64,1.64,0,1,0,1.63,1.63A1.64,1.64,0,0,0,64.76,4.69Z"/><path d="M60.26,4.66a1.66,1.66,0,1,0,1.66,1.66A1.66,1.66,0,0,0,60.26,4.66Z"/><path d="M55.76,4.66a1.66,1.66,0,1,0,1.66,1.66A1.66,1.66,0,0,0,55.76,4.66Z"/><path d="M51.26,4.65a1.67,1.67,0,1,0,1.67,1.67A1.67,1.67,0,0,0,51.26,4.65Z"/><path d="M46.76,4.65a1.67,1.67,0,1,0,1.67,1.67A1.67,1.67,0,0,0,46.76,4.65Z"/><path d="M42.26,4.64a1.69,1.69,0,1,0,1.68,1.68A1.68,1.68,0,0,0,42.26,4.64Z"/><path d="M37.76,4.64a1.69,1.69,0,1,0,1.68,1.68A1.68,1.68,0,0,0,37.76,4.64Z"/><path d="M33.26,4.62A1.7,1.7,0,1,0,35,6.32,1.7,1.7,0,0,0,33.26,4.62Z"/><path d="M28.76,4.61a1.71,1.71,0,1,0,1.71,1.71A1.71,1.71,0,0,0,28.76,4.61Z"/><path d="M24.26,4.61A1.71,1.71,0,1,0,26,6.32,1.71,1.71,0,0,0,24.26,4.61Z"/><path d="M19.76,4.59a1.74,1.74,0,1,0,1.73,1.73A1.72,1.72,0,0,0,19.76,4.59Z"/><path d="M15.26,4.59A1.74,1.74,0,1,0,17,6.32,1.72,1.72,0,0,0,15.26,4.59Z"/><path d="M10.76,4.57a1.75,1.75,0,1,0,1.75,1.75A1.75,1.75,0,0,0,10.76,4.57Z"/><path d="M6.26,4.57A1.75,1.75,0,1,0,8,6.32,1.75,1.75,0,0,0,6.26,4.57Z"/><path d="M1.76,4.56A1.76,1.76,0,1,0,3.52,6.32,1.76,1.76,0,0,0,1.76,4.56Z"/><path d="M143.51.25a1.57,1.57,0,1,0,1.57,1.57A1.57,1.57,0,0,0,143.51.25Z"/><path d="M139,.25a1.57,1.57,0,1,0,1.57,1.57A1.57,1.57,0,0,0,139,.25Z"/><path d="M134.51.24a1.59,1.59,0,1,0,1.58,1.58A1.59,1.59,0,0,0,134.51.24Z"/><path d="M130,.24a1.59,1.59,0,1,0,1.58,1.58A1.59,1.59,0,0,0,130,.24Z"/><path d="M125.51.22a1.6,1.6,0,1,0,1.6,1.6A1.6,1.6,0,0,0,125.51.22Z"/><path d="M121,.22a1.6,1.6,0,1,0,1.6,1.6A1.6,1.6,0,0,0,121,.22Z"/><path d="M116.51.21a1.61,1.61,0,1,0,1.61,1.61A1.61,1.61,0,0,0,116.51.21Z"/><path d="M112,.2a1.62,1.62,0,1,0,1.62,1.62A1.62,1.62,0,0,0,112,.2Z"/><path d="M107.51.2a1.62,1.62,0,1,0,1.62,1.62A1.62,1.62,0,0,0,107.51.2Z"/><path d="M103,.19a1.64,1.64,0,1,0,1.63,1.63A1.63,1.63,0,0,0,103,.19Z"/><path d="M98.51.19a1.64,1.64,0,1,0,1.63,1.63A1.63,1.63,0,0,0,98.51.19Z"/><path d="M94,.16a1.66,1.66,0,1,0,1.66,1.66A1.66,1.66,0,0,0,94,.16Z"/><path d="M89.51.16a1.66,1.66,0,1,0,1.66,1.66A1.66,1.66,0,0,0,89.51.16Z"/><path d="M85,.15a1.67,1.67,0,1,0,1.67,1.67A1.67,1.67,0,0,0,85,.15Z"/><path d="M80.51.14a1.69,1.69,0,1,0,1.68,1.68A1.68,1.68,0,0,0,80.51.14Z"/><path d="M76,.14a1.69,1.69,0,1,0,1.68,1.68A1.68,1.68,0,0,0,76,.14Z"/><path d="M71.51.12a1.7,1.7,0,1,0,1.7,1.7A1.7,1.7,0,0,0,71.51.12Z"/><path d="M67,.12a1.7,1.7,0,1,0,1.7,1.7A1.7,1.7,0,0,0,67,.12Z"/><path d="M62.51.11a1.71,1.71,0,1,0,1.71,1.71A1.71,1.71,0,0,0,62.51.11Z"/><path d="M58,.11a1.71,1.71,0,1,0,1.71,1.71A1.71,1.71,0,0,0,58,.11Z"/><path d="M53.51.09a1.74,1.74,0,1,0,1.73,1.73A1.72,1.72,0,0,0,53.51.09Z"/><path d="M49,.07a1.75,1.75,0,1,0,1.75,1.75A1.75,1.75,0,0,0,49,.07Z"/><path d="M44.51.07a1.75,1.75,0,1,0,1.75,1.75A1.75,1.75,0,0,0,44.51.07Z"/><path d="M40,.06a1.76,1.76,0,1,0,1.76,1.76A1.76,1.76,0,0,0,40,.06Z"/><path d="M35.51.06a1.76,1.76,0,1,0,1.76,1.76A1.76,1.76,0,0,0,35.51.06Z"/><path d="M31,.05a1.77,1.77,0,1,0,1.77,1.77A1.77,1.77,0,0,0,31,.05Z"/><path d="M26.51,0a1.8,1.8,0,1,0,1.8,1.8A1.81,1.81,0,0,0,26.51,0Z"/><path d="M22,0a1.8,1.8,0,1,0,1.8,1.8A1.81,1.81,0,0,0,22,0Z"/><path d="M17.51,0a1.81,1.81,0,1,0,1.81,1.81A1.81,1.81,0,0,0,17.51,0Z"/><path d="M13,0a1.81,1.81,0,1,0,1.81,1.81A1.81,1.81,0,0,0,13,0Z"/><path d="M8.51,0a1.82,1.82,0,1,0,1.82,1.82A1.82,1.82,0,0,0,8.51,0Z"/><path d="M4,0A1.82,1.82,0,1,0,5.83,1.82,1.82,1.82,0,0,0,4,0Z"/></g></g></svg>